<svg width="14" height="18" viewBox="0 0 14 18" fill="none" xmlns="http://www.w3.org/2000/svg">
<path d="M8.3125 2.63415C8.3125 1.93171 7 0 7 0C7 0 5.6875 1.93171 5.6875 2.63415C5.6875 3.33659 6.3 3.95122 7 3.95122C7.7 3.95122 8.3125 3.33659 8.3125 2.63415ZM10.0625 7.46341H8.75V4.82927H5.25V7.46341H3.9375C1.75 7.46341 0 9.0439 0 10.9756C0 12.2927 0.525 13.4341 1.225 14.0488L2.45 18H11.6375L12.775 14.0488C13.5625 13.4341 14 12.2927 14 10.9756C14 9.0439 12.25 7.46341 10.0625 7.46341ZM11.55 12.7317C11.2 12.7317 10.9375 12.4683 10.5875 11.9415C10.325 11.5024 9.975 10.9756 9.275 10.9756C8.6625 10.9756 8.3125 11.4146 7.9625 11.8537C7.7 12.2049 7.2625 12.7317 6.9125 12.7317C6.5625 12.7317 6.3 12.3805 5.95 11.9415C5.6 11.5024 5.25 10.9756 4.6375 10.9756C4.025 10.9756 3.675 11.4146 3.325 11.8537C2.975 12.3805 2.7125 12.7317 2.3625 12.7317C2.1875 12.6439 1.75 12.0293 1.75 10.9756C1.75 10.0098 2.7125 9.21951 3.9375 9.21951H10.0625C11.2875 9.21951 12.25 10.0098 12.25 10.9756C12.25 12.1171 11.725 12.7317 11.55 12.7317Z" fill="#EC6373"/>
</svg>
