<svg width="25" height="23" viewBox="0 0 25 23" fill="none" xmlns="http://www.w3.org/2000/svg">
<path d="M20.1305 4.88968C15.9805 4.88968 11.8105 4.89968 7.67047 5.15968C6.16047 5.25968 4.17047 5.17968 2.79047 5.89968C1.11047 6.77968 1.09047 9.93968 1.02047 11.5597C0.950469 13.0397 1.05047 14.5297 1.08047 16.0097C1.11047 17.4497 0.740469 19.3297 1.50047 20.6297C2.40047 22.1697 4.60047 21.8497 6.12047 21.9197C7.42047 21.9797 8.72047 22.0297 10.0205 22.0697C12.6505 22.1497 15.3005 22.1697 17.9305 22.1397C20.2405 22.1197 23.2205 21.6697 24.0305 19.1297C24.4305 17.8697 24.3105 16.3197 24.3205 15.0097C24.3305 13.3797 24.2805 11.7397 24.1005 10.1297C23.8405 7.73968 23.1205 4.90968 20.1305 4.88968C18.6805 4.87968 18.6805 7.12968 20.1305 7.13968C21.8205 7.14968 21.8305 9.68968 21.9405 11.0597C22.1105 13.2797 22.1205 15.5297 21.9905 17.7397C21.8505 20.0497 18.8905 19.8897 17.1605 19.8897C14.9605 19.8897 12.7505 19.8997 10.5505 19.8397C9.58047 19.8097 8.61047 19.7797 7.64047 19.7397C6.96047 19.7097 6.29047 19.6797 5.61047 19.6497C5.11047 19.6297 3.73047 19.8097 3.40047 19.3897C3.10047 18.9997 3.35047 17.7497 3.35047 17.2597C3.35047 16.5997 3.34047 15.9397 3.32047 15.2797C3.29047 14.0397 3.22047 12.7997 3.28047 11.5597C3.32047 10.5797 3.43047 9.57968 3.67047 8.61968C3.72047 8.40968 3.94047 7.95968 3.94047 7.79968C3.95047 7.91968 3.62047 7.91968 4.04047 7.82968C5.40047 7.52968 6.82047 7.45968 8.22047 7.37968C12.1905 7.15968 16.1705 7.13968 20.1405 7.13968C21.5805 7.13968 21.5805 4.88968 20.1305 4.88968Z" fill="#313334"/>
<path d="M9.34118 9.77977C7.75118 11.4198 7.47118 14.3898 8.75118 16.2898C9.81118 17.8598 11.7512 18.4798 13.5512 17.9098C15.2612 17.3598 16.6412 15.9198 16.7212 14.0698C16.7612 13.0998 16.4012 12.0098 15.8812 11.1898C15.4212 10.4498 14.7612 9.79977 13.9712 9.41977C12.5612 8.73977 10.5512 8.60977 9.34118 9.77977C8.92118 10.1898 8.90118 10.9598 9.34118 11.3698C9.79118 11.7898 10.4812 11.8098 10.9312 11.3698C10.9612 11.3398 11.0112 11.3098 11.0312 11.2798C10.9912 11.3298 10.7612 11.4598 10.9312 11.3598C10.9712 11.3398 11.0012 11.3198 11.0412 11.2898C11.0912 11.2598 11.3012 11.1698 11.0812 11.2598C10.8712 11.3498 11.0512 11.2798 11.1012 11.2598C11.1512 11.2398 11.2112 11.2198 11.2612 11.2098C11.3712 11.1798 11.5012 11.1698 11.6112 11.1398C11.6112 11.1398 11.2812 11.1698 11.4512 11.1598C11.4712 11.1598 11.5012 11.1498 11.5212 11.1498C11.5812 11.1498 11.6312 11.1398 11.6912 11.1398C11.8312 11.1298 11.9712 11.1398 12.1112 11.1498C12.1712 11.1498 12.2312 11.1698 12.2912 11.1698C12.2912 11.1698 11.9812 11.1198 12.1412 11.1498C12.1712 11.1598 12.2112 11.1598 12.2412 11.1698C12.3812 11.1998 12.5212 11.2298 12.6512 11.2798C12.7112 11.2998 12.7712 11.3198 12.8312 11.3398C13.0512 11.4198 12.6312 11.2398 12.7912 11.3198C12.9312 11.3898 13.0612 11.4598 13.1912 11.5398C13.2612 11.5798 13.3212 11.6298 13.3812 11.6698C13.5312 11.7698 13.1712 11.4898 13.3612 11.6598C13.4812 11.7698 13.6012 11.8798 13.7112 12.0098C13.7612 12.0598 13.8012 12.1398 13.8512 12.1798C13.6312 11.9898 13.8012 12.1198 13.8712 12.2198C13.9712 12.3798 14.0712 12.5398 14.1512 12.7098C14.1612 12.7298 14.2212 12.8298 14.2112 12.8398C14.2112 12.8498 14.1312 12.6198 14.1712 12.7498C14.2012 12.8398 14.2312 12.9198 14.2612 13.0098C14.3312 13.2398 14.3912 13.4698 14.4412 13.6998C14.5012 13.9598 14.4312 13.4998 14.4412 13.6998C14.4412 13.7798 14.4512 13.8598 14.4512 13.9498C14.4512 14.0198 14.4412 14.0898 14.4412 14.1598C14.4312 14.3998 14.5112 13.8998 14.4412 14.1798C14.4112 14.3098 14.3712 14.4398 14.3312 14.5698C14.2812 14.7298 14.3712 14.4698 14.3812 14.4598C14.3612 14.4798 14.3412 14.5398 14.3312 14.5598C14.2912 14.6298 14.2612 14.6998 14.2212 14.7598C14.1812 14.8298 14.1412 14.8898 14.0912 14.9498C13.9912 15.0998 14.2812 14.7398 14.1112 14.9298C14.0112 15.0498 13.9012 15.1598 13.7912 15.2598C13.7812 15.2698 13.6512 15.3998 13.6312 15.3898C13.6112 15.3798 13.8512 15.2298 13.7212 15.3198C13.6912 15.3398 13.6612 15.3698 13.6212 15.3898C13.4912 15.4798 13.3512 15.5598 13.2112 15.6298C13.1612 15.6498 12.9412 15.7498 13.1312 15.6698C13.3212 15.5898 13.0912 15.6798 13.0412 15.6998C12.8812 15.7598 12.7212 15.7998 12.5612 15.8398C12.5012 15.8498 12.4112 15.8498 12.3612 15.8798C12.3712 15.8698 12.6612 15.8498 12.4812 15.8598C12.4412 15.8598 12.4012 15.8698 12.3612 15.8698C12.2012 15.8798 12.0512 15.8698 11.8912 15.8698C11.8612 15.8698 11.8312 15.8598 11.8012 15.8598C11.6612 15.8598 12.0612 15.9098 11.9312 15.8798C11.8612 15.8598 11.8012 15.8598 11.7312 15.8398C11.5912 15.8098 11.4312 15.7198 11.2812 15.6998C11.4912 15.7198 11.4812 15.7998 11.3912 15.7398C11.3612 15.7198 11.3212 15.6998 11.2812 15.6898C11.2212 15.6598 11.1612 15.6198 11.1012 15.5798C11.0712 15.5598 11.0312 15.5298 11.0012 15.5098C10.9012 15.4498 11.1112 15.5998 11.1112 15.5898C11.0512 15.5198 10.9612 15.4698 10.9012 15.3998C10.8312 15.3298 10.7712 15.2598 10.7012 15.1898C10.6812 15.1598 10.6012 15.0698 10.7112 15.1998C10.8312 15.3498 10.7012 15.1798 10.6812 15.1498C10.6212 15.0598 10.5712 14.9698 10.5212 14.8798C10.4812 14.7998 10.3612 14.4898 10.4412 14.7198C10.3612 14.4798 10.2812 14.2398 10.2312 13.9798C10.2212 13.9498 10.2012 13.8798 10.2112 13.8498C10.2312 13.9898 10.2312 14.0098 10.2212 13.9298C10.2212 13.8898 10.2112 13.8398 10.2112 13.7998C10.2012 13.6798 10.2012 13.5598 10.2012 13.4398C10.2012 13.3098 10.2112 13.1698 10.2212 13.0398C10.2212 13.0198 10.2212 12.9198 10.2312 12.9098C10.2112 13.0498 10.2112 13.0798 10.2212 12.9898C10.2212 12.9598 10.2312 12.9298 10.2412 12.8998C10.2812 12.6598 10.3512 12.4298 10.4312 12.1998C10.4412 12.1698 10.4612 12.0698 10.4912 12.0398C10.3612 12.2098 10.4512 12.1298 10.4912 12.0498C10.5412 11.9398 10.6012 11.8398 10.6612 11.7298C10.6812 11.6898 10.7812 11.4798 10.8312 11.4698C10.8112 11.4698 10.6812 11.6398 10.7912 11.5198C10.8412 11.4698 10.8912 11.4098 10.9412 11.3598C11.3512 10.9398 11.3912 10.1798 10.9412 9.76977C10.4912 9.37977 9.78118 9.32977 9.34118 9.77977Z" fill="#313334"/>
<path d="M19.081 5.28005C18.921 4.04005 18.901 2.79005 19.001 1.54005C18.621 1.92005 18.251 2.29005 17.881 2.67005C18.531 2.59005 19.191 2.52005 19.841 2.44005C20.131 2.41005 20.431 2.37005 20.721 2.34005C20.941 2.31005 21.391 2.20005 21.571 2.27005C21.401 2.17005 21.241 2.08005 21.071 1.98005C20.961 1.72005 20.931 1.69005 20.991 1.88005C21.021 2.08005 21.021 2.03005 20.971 1.75005C20.971 1.79005 20.981 1.84005 20.991 1.88005C21.001 1.98005 21.021 2.09005 21.031 2.20005C21.071 2.56005 21.111 2.92005 21.151 3.27005C21.261 4.28005 21.371 5.28005 21.481 6.29005C21.661 7.96005 21.821 9.64005 22.051 11.31C22.131 11.91 22.901 12.24 23.431 12.1C24.081 11.92 24.301 11.32 24.221 10.72C24.261 11.01 24.251 10.98 24.231 10.75C24.211 10.62 24.201 10.48 24.181 10.35C24.141 9.98005 24.101 9.62005 24.061 9.25005C23.951 8.28005 23.851 7.32005 23.741 6.35005C23.571 4.80005 23.421 3.25005 23.221 1.71005C23.161 1.24005 23.071 0.770046 22.701 0.420046C22.241 -0.00995427 21.691 -0.0399543 21.101 0.0300457C20.021 0.160046 18.951 0.290046 17.871 0.410046C17.221 0.490046 16.801 0.870046 16.751 1.53005C16.641 2.78005 16.671 4.03005 16.831 5.28005C16.911 5.88005 17.291 6.40005 17.961 6.40005C18.501 6.41005 19.161 5.89005 19.081 5.28005Z" fill="#313334"/>
</svg>
