<svg width="18" height="14" viewBox="0 0 18 14" fill="none" xmlns="http://www.w3.org/2000/svg">
<path fill-rule="evenodd" clip-rule="evenodd" d="M3.92969 8L17 8C17.552 8 18 7.552 18 7C18 6.448 17.552 6 17 6L3.92769 6L7.79269 2.135C8.18369 1.744 8.18369 1.111 7.79269 0.721L7.70669 0.634999C7.31569 0.244 6.68269 0.243999 6.29269 0.634999L0.635689 6.292C0.244689 6.683 0.244689 7.316 0.635689 7.706L6.29269 13.363C6.68369 13.754 7.31669 13.754 7.70669 13.363L7.79269 13.277C8.18369 12.886 8.18369 12.253 7.79269 11.863L3.92969 8Z" fill="white"/>

</svg>
