<svg width="32" height="23" viewBox="0 0 32 23" fill="none" xmlns="http://www.w3.org/2000/svg">
<path d="M15.2403 3.03981C14.9803 7.58981 14.8303 12.1398 14.8403 16.6998C14.8403 18.1498 17.0903 18.1498 17.0903 16.6998C17.0803 12.1398 17.2303 7.58981 17.4903 3.03981C17.5703 1.58981 15.3203 1.59981 15.2403 3.03981Z" fill="#C0C0C0"/>
<path d="M5.00008 2.11012C4.74008 6.66012 4.59008 11.2101 4.60008 15.7701C4.60008 17.2201 6.85008 17.2201 6.85008 15.7701C6.84008 11.2101 6.99008 6.66012 7.25008 2.11012C7.34008 0.66012 5.09008 0.67012 5.00008 2.11012Z" fill="#C0C0C0"/>
<path d="M6.85035 2.88C7.22035 2.53 8.04036 2.48 8.56036 2.4C9.28036 2.29 10.0204 2.25 10.7604 2.26C12.1904 2.28 13.6104 2.56 14.8804 3.23C15.4204 3.51 16.1004 3.37 16.4204 2.83C16.7204 2.32 16.5604 1.57 16.0204 1.29C14.3404 0.4 12.4804 0 10.5904 0C9.65036 0 8.72036 0.1 7.80035 0.25C6.87035 0.41 5.96036 0.62 5.25036 1.28C4.20036 2.28 5.79035 3.87 6.85035 2.88Z" fill="#C0C0C0"/>
<path d="M6.17988 16.9202C8.97988 15.5602 11.9299 16.5402 14.6799 17.5002C15.2499 17.7002 15.9099 17.2702 16.0599 16.7102C16.2299 16.0902 15.8499 15.5302 15.2699 15.3302C13.5999 14.7502 11.9299 14.2202 10.1599 14.0302C8.36988 13.8402 6.64988 14.1902 5.02988 14.9802C4.47988 15.2502 4.33988 16.0202 4.62988 16.5202C4.96988 17.0802 5.62988 17.1902 6.17988 16.9202Z" fill="#C0C0C0"/>
<path d="M5.89993 2.08022C4.82993 1.74022 3.63993 1.73022 2.55993 2.06022C2.27993 2.14022 2.02993 2.33022 1.88993 2.58022C1.74993 2.82022 1.68993 3.18022 1.77993 3.45022C1.95993 4.02022 2.55993 4.42022 3.15993 4.24022C3.39993 4.17022 3.63993 4.12022 3.88993 4.08022C3.78993 4.09022 3.68993 4.11022 3.58993 4.12022C3.99993 4.07022 4.41993 4.07022 4.82993 4.12022C4.72993 4.11022 4.62993 4.09022 4.52993 4.08022C4.78993 4.12022 5.04993 4.18022 5.29993 4.26022C5.85993 4.44022 6.54993 4.05022 6.67993 3.47022C6.82993 2.85022 6.49993 2.27022 5.89993 2.08022Z" fill="#C0C0C0"/>
<path d="M1.32009 3.53039C1.00009 6.09039 0.910086 8.67039 0.860086 11.2504C0.810086 13.8204 0.800087 16.4104 0.990087 18.9804C1.10009 20.4204 3.35009 20.4304 3.24009 18.9804C3.05009 16.4104 3.06009 13.8204 3.11009 11.2504C3.16009 8.68039 3.25009 6.09039 3.57009 3.53039C3.64008 2.92039 3.00008 2.41039 2.44008 2.40039C1.77008 2.40039 1.39009 2.93039 1.32009 3.53039Z" fill="#C0C0C0"/>
<path d="M15.3099 16.4801C10.4799 16.7601 5.78988 18.0701 1.50988 20.3301C2.06988 20.6501 2.63988 20.9801 3.19988 21.3001C3.22988 20.4401 3.25988 19.5801 3.28988 18.7201C3.33988 17.2701 1.08988 17.2701 1.03988 18.7201C1.00988 19.5801 0.979878 20.4401 0.949878 21.3001C0.919878 22.1901 1.91988 22.6501 2.63988 22.2701C6.54988 20.2001 10.8799 18.9801 15.2999 18.7201C16.7499 18.6501 16.7599 16.4001 15.3099 16.4801Z" fill="#C0C0C0"/>
<path d="M26.9697 4.24982C27.2197 4.16982 27.4797 4.10982 27.7397 4.06982C27.6397 4.07982 27.5397 4.09982 27.4397 4.10982C27.8497 4.05982 28.2697 4.04982 28.6797 4.10982C28.5797 4.09982 28.4797 4.07982 28.3797 4.06982C28.6297 4.09982 28.8697 4.15982 29.1097 4.22982C29.6697 4.39982 30.3597 4.02982 30.4897 3.43982C30.6297 2.82982 30.3097 2.23982 29.6997 2.05982C28.6297 1.73982 27.4297 1.73982 26.3597 2.07982C26.0797 2.16982 25.8397 2.33982 25.6897 2.59982C25.5497 2.83982 25.4897 3.19982 25.5797 3.46982C25.6797 3.72982 25.8397 3.99982 26.0997 4.12982C26.3697 4.26982 26.6797 4.33982 26.9697 4.24982Z" fill="#C0C0C0"/>
<path d="M28.6995 3.52981C29.0195 6.08981 29.1095 8.66981 29.1595 11.2498C29.2095 13.8198 29.2195 16.4098 29.0295 18.9798C28.9195 20.4198 31.1695 20.4198 31.2795 18.9798C31.4695 16.4098 31.4595 13.8198 31.4095 11.2498C31.3595 8.67981 31.2695 6.08981 30.9495 3.52981C30.8695 2.91981 30.4895 2.40981 29.8295 2.40981C29.2795 2.39981 28.6295 2.92981 28.6995 3.52981Z" fill="#C0C0C0"/>
<path d="M16.96 18.7299C21.38 18.9899 25.71 20.1999 29.62 22.2799C30.34 22.6599 31.34 22.1999 31.31 21.3099C31.28 20.4499 31.25 19.5899 31.22 18.7299C31.17 17.2899 28.92 17.2799 28.97 18.7299C29 19.5899 29.03 20.4499 29.06 21.3099C29.62 20.9899 30.19 20.6599 30.75 20.3399C26.47 18.0699 21.78 16.7699 16.95 16.4899C15.51 16.3999 15.52 18.6499 16.96 18.7299Z" fill="#C0C0C0"/>
<path d="M24.7999 2.11012C25.0599 6.66012 25.2099 11.2101 25.1999 15.7701C25.1999 17.2201 27.4499 17.2201 27.4499 15.7701C27.4599 11.2101 27.3099 6.66012 27.0499 2.11012C26.9699 0.67012 24.7199 0.66012 24.7999 2.11012Z" fill="#C0C0C0"/>
<path d="M26.7999 1.28C26.1099 0.63 25.2399 0.42 24.3299 0.26C23.3899 0.1 22.4299 0 21.4599 0C19.5699 0 17.7099 0.4 16.0399 1.28C15.4999 1.56 15.3399 2.31 15.6399 2.82C15.9599 3.36 16.6399 3.51 17.1799 3.22C18.4499 2.55 19.8699 2.27 21.2999 2.25C22.0099 2.24 22.7199 2.28 23.4199 2.38C23.9599 2.46 24.8299 2.51 25.2099 2.87C26.2699 3.86 27.8599 2.28 26.7999 1.28Z" fill="#C0C0C0"/>
<path d="M27.0101 14.9802C25.3901 14.1902 23.6701 13.8402 21.8801 14.0302C20.1201 14.2202 18.4401 14.7502 16.7701 15.3302C16.2001 15.5302 15.8201 16.1002 15.9801 16.7102C16.1301 17.2702 16.7901 17.7002 17.3601 17.5002C20.1101 16.5402 23.0701 15.5602 25.8601 16.9202C26.4101 17.1902 27.0801 17.0702 27.4001 16.5202C27.7101 16.0302 27.5601 15.2502 27.0101 14.9802Z" fill="#C0C0C0"/>
</svg>
