<svg width="23" height="16" viewBox="0 0 23 16" fill="none" xmlns="http://www.w3.org/2000/svg">
<path d="M0.857163 4.28581H5.14298H5.22869C5.57156 5.74299 6.94302 6.8573 8.57163 6.8573C10.2002 6.8573 11.486 5.74299 11.9146 4.28581H12.0003H21.4291C21.9434 4.28581 22.2862 3.94295 22.2862 3.42865C22.2862 2.91435 21.9434 2.57149 21.4291 2.57149H12.0003H11.9146C11.5717 1.11431 10.2002 0 8.57163 0C6.94302 0 5.65728 1.11431 5.22869 2.57149H5.14298H0.857163C0.342865 2.57149 0 2.91435 0 3.42865C0 3.94295 0.342865 4.28581 0.857163 4.28581ZM8.57163 1.71433C9.51451 1.71433 10.286 2.48577 10.286 3.42865C10.286 4.37153 9.51451 5.14298 8.57163 5.14298C7.62875 5.14298 6.8573 4.37153 6.8573 3.42865C6.8573 2.48577 7.62875 1.71433 8.57163 1.71433Z" fill="#5344BA"/>
<path d="M0.857163 12.8576H11.1431H11.2288C11.5717 14.3148 12.9432 15.4291 14.5718 15.4291C16.2004 15.4291 17.4861 14.3148 17.9147 12.8576H18.0004H21.4291C21.9434 12.8576 22.2862 12.5147 22.2862 12.0004C22.2862 11.4861 21.9434 11.1433 21.4291 11.1433H18.0004H17.9147C17.5718 9.68609 16.2004 8.57178 14.5718 8.57178C12.9432 8.57178 11.6574 9.68609 11.2288 11.1433H11.1431H0.857163C0.342865 11.1433 0 11.4861 0 12.0004C0 12.5147 0.342865 12.8576 0.857163 12.8576ZM14.5718 10.2861C15.5146 10.2861 16.2861 11.0575 16.2861 12.0004C16.2861 12.9433 15.5146 13.7148 14.5718 13.7148C13.6289 13.7148 12.8574 12.9433 12.8574 12.0004C12.8574 11.0575 13.6289 10.2861 14.5718 10.2861Z" fill="#5344BA"/>
</svg>
