<svg width="39" height="23" viewBox="0 0 39 23" fill="none" xmlns="http://www.w3.org/2000/svg">
<path d="M4.66021 11.5198C3.84021 10.4298 3.87021 8.66978 3.87021 7.35979C3.86021 6.16979 3.81021 4.63978 4.40021 3.56978C5.02021 2.44978 6.94021 2.63978 8.01021 2.56978C9.52021 2.47978 11.0402 2.43978 12.5502 2.43978C14.0402 2.44978 15.5502 2.44978 17.0302 2.60979C17.6302 2.66979 18.1402 2.77978 18.4002 3.36978C18.6102 3.84978 18.5902 4.43978 18.5902 4.95978C18.5902 6.88978 18.5702 8.91978 18.2302 10.8198C17.9802 12.2398 20.1502 12.8398 20.4002 11.4198C20.7502 9.43978 20.8002 7.37979 20.8302 5.37979C20.8502 4.31979 20.8202 3.23978 20.3502 2.26978C19.7602 1.03978 18.5802 0.529784 17.2902 0.389784C14.3302 0.0697838 11.2802 0.139786 8.32021 0.309786C6.98021 0.379786 5.48021 0.349783 4.22021 0.869783C3.07021 1.33978 2.36021 2.31978 2.02021 3.49978C1.60021 4.96978 1.56021 6.62979 1.63021 8.14979C1.70021 9.63979 1.78021 11.4298 2.71021 12.6598C3.58021 13.7998 5.53021 12.6798 4.66021 11.5198Z" fill="#C0C0C0"/>
<path d="M20.98 5.18976C21.09 4.43976 21.19 3.46977 21.9 3.03977C22.66 2.57977 23.83 2.65976 24.68 2.59976C26.95 2.44976 29.22 2.41977 31.5 2.48977C32.48 2.51977 33.57 2.45976 34.53 2.68976C35.41 2.89976 35.55 3.64977 35.59 4.45976C35.63 5.49976 35.56 6.55977 35.43 7.58977C35.31 8.56977 35.19 9.64977 34.65 10.4898C33.86 11.7098 35.81 12.8398 36.59 11.6298C37.31 10.5198 37.48 9.17977 37.64 7.89977C37.81 6.56977 37.94 5.18977 37.79 3.85977C37.67 2.76977 37.28 1.69976 36.35 1.04976C35.24 0.279765 33.77 0.329766 32.48 0.269766C29.56 0.139766 26.63 0.179766 23.72 0.409766C22.5 0.509766 21.2 0.619767 20.24 1.46977C19.34 2.25977 18.98 3.42977 18.82 4.57977C18.73 5.18977 18.97 5.77977 19.61 5.95976C20.12 6.11976 20.9 5.78976 20.98 5.18976Z" fill="#C0C0C0"/>
<path d="M6.21024 11.7595C5.29024 11.0795 4.19024 10.5895 3.02024 10.7795C2.04024 10.9395 1.22024 11.6295 0.730242 12.4795C0.200242 13.3995 0.0802418 14.4995 0.0702418 15.5395C0.0502418 16.6695 0.0602418 17.7895 0.0502418 18.9195C0.0502418 19.9295 -0.219758 21.3695 0.530242 22.1795C1.29024 22.9995 2.46024 22.7895 3.45024 22.6995C3.98024 22.6495 4.51024 22.5996 5.04024 22.5496C5.74024 22.4796 6.51024 22.4995 6.94024 21.8395C7.25024 21.3695 7.21024 20.7895 7.24024 20.2595C7.27024 19.6795 7.30024 19.1095 7.32024 18.5295C7.38024 17.2495 7.45024 15.9695 7.51024 14.6895C7.56024 13.5595 7.24024 12.4795 6.08024 12.0595C5.51024 11.8495 4.85024 12.2895 4.70024 12.8495C4.53024 13.4795 4.91024 14.0296 5.49024 14.2296C5.51024 14.2396 5.15024 14.0695 5.20024 13.9595C5.20024 13.9595 5.28024 14.2795 5.26024 14.1495C5.28024 14.2395 5.27024 14.5995 5.26024 14.7895C5.23024 15.4895 5.19024 16.1995 5.16024 16.8995C5.11024 17.5995 5.08024 18.2995 5.04024 18.9995C5.02024 19.3195 5.01024 19.6395 4.99024 19.9595C4.98024 20.1495 4.97024 20.3395 4.96024 20.5395C4.96024 20.5995 4.95024 20.6695 4.95024 20.7296C4.94024 20.9996 4.95024 20.9895 4.99024 20.6995C5.12024 20.5695 5.26024 20.4296 5.39024 20.2996C5.65024 20.1695 5.18024 20.2795 5.12024 20.2895C4.93024 20.3095 4.75024 20.3295 4.56024 20.3395C4.22024 20.3695 3.88024 20.4095 3.53024 20.4395C3.19024 20.4695 2.85024 20.5095 2.50024 20.5395C2.37024 20.5495 2.24024 20.5495 2.11024 20.5595C1.76024 20.5795 2.06024 20.5195 2.07024 20.5695C2.14024 20.6695 2.21024 20.7595 2.29024 20.8595C2.30024 20.8995 2.30024 20.8795 2.29024 20.7996C2.35024 20.6995 2.29024 20.3795 2.29024 20.2495C2.29024 19.8995 2.29024 19.5595 2.29024 19.2095C2.29024 18.4795 2.30024 17.7595 2.30024 17.0295C2.30024 15.9095 2.11024 14.4495 2.74024 13.4995C2.93024 13.2095 3.14024 13.0195 3.48024 12.9795C4.05024 12.9195 4.64024 13.3895 5.07024 13.6995C5.56024 14.0595 6.33024 13.7796 6.61024 13.2996C6.95024 12.7296 6.70024 12.1295 6.21024 11.7595Z" fill="#C0C0C0"/>
<path d="M37.2105 11.7595C36.2905 11.0795 35.1905 10.5895 34.0205 10.7795C33.0405 10.9395 32.2205 11.6295 31.7305 12.4795C31.2005 13.3995 31.0805 14.4895 31.0605 15.5395C31.0405 16.6695 31.0505 17.7895 31.0405 18.9195C31.0405 19.9295 30.7705 21.3695 31.5205 22.1795C32.2805 22.9995 33.4505 22.7895 34.4405 22.6895C34.9705 22.6395 35.5005 22.5895 36.0305 22.5395C36.7305 22.4695 37.5005 22.4895 37.9305 21.8295C38.2405 21.3595 38.2005 20.7795 38.2305 20.2495C38.2605 19.6695 38.2905 19.0995 38.3105 18.5195C38.3705 17.2395 38.4405 15.9595 38.5005 14.6795C38.5505 13.5495 38.2305 12.4695 37.0705 12.0495C36.5005 11.8395 35.8405 12.2795 35.6905 12.8395C35.5205 13.4695 35.9005 14.0195 36.4805 14.2195C36.5005 14.2295 36.1405 14.0595 36.1905 13.9495C36.1905 13.9495 36.2705 14.2695 36.2505 14.1395C36.2705 14.2295 36.2605 14.5895 36.2505 14.7795C36.2205 15.4795 36.1805 16.1895 36.1505 16.8895C36.1205 17.5895 36.0805 18.2995 36.0505 18.9995C36.0305 19.3195 36.0205 19.6395 36.0005 19.9595C35.9905 20.1495 35.9805 20.3395 35.9705 20.5395C35.9705 20.5995 35.9605 20.6695 35.9605 20.7296C35.9405 20.9996 35.9505 20.9895 35.9905 20.6995C36.1205 20.5695 36.2605 20.4296 36.3905 20.2996C36.6505 20.1695 36.1805 20.2795 36.1205 20.2895C35.9305 20.3095 35.7505 20.3295 35.5605 20.3395C35.2205 20.3695 34.8805 20.4095 34.5305 20.4395C34.1905 20.4695 33.8505 20.5095 33.5005 20.5395C33.3705 20.5495 33.2405 20.5495 33.1105 20.5595C32.7605 20.5795 33.0605 20.5195 33.0705 20.5695C33.1405 20.6695 33.2105 20.7595 33.2905 20.8595C33.3005 20.8995 33.3005 20.8795 33.2905 20.7996C33.3505 20.6995 33.2905 20.3795 33.2905 20.2495C33.2905 19.8995 33.2905 19.5595 33.2905 19.2095C33.2905 18.4795 33.3005 17.7595 33.3005 17.0295C33.3005 15.9095 33.1105 14.4495 33.7405 13.4995C33.9305 13.2095 34.1405 13.0195 34.4805 12.9795C35.0505 12.9195 35.6405 13.3895 36.0705 13.6995C36.5605 14.0595 37.3305 13.7796 37.6105 13.2996C37.9505 12.7296 37.7005 12.1295 37.2105 11.7595Z" fill="#C0C0C0"/>
<path d="M7.1998 21.8999C15.1298 21.8999 23.0598 22.2799 30.9898 22.0499C32.4298 22.0099 32.4398 19.7599 30.9898 19.7999C23.0598 20.0299 15.1298 19.6499 7.1998 19.6499C5.7498 19.6499 5.7498 21.8999 7.1998 21.8999Z" fill="#C0C0C0"/>
<path d="M6.1998 13.8999C14.7998 13.8999 23.3898 14.2999 31.9898 14.0499C33.4298 14.0099 33.4398 11.7599 31.9898 11.7999C23.3898 12.0499 14.7998 11.6499 6.1998 11.6499C4.7498 11.6499 4.7498 13.8999 6.1998 13.8999Z" fill="#C0C0C0"/>
</svg>
