<svg width="29" height="35" viewBox="0 0 29 35" fill="none" xmlns="http://www.w3.org/2000/svg">
<path d="M19.5998 1.88029C17.9198 6.66029 16.7298 12.3303 12.1198 15.2103C11.3898 15.6603 11.3898 16.7003 12.1198 17.1503C16.7298 20.0203 17.8298 25.4903 18.5998 30.4803C18.7698 31.5503 20.6098 31.5603 20.7698 30.4803C21.5398 25.4003 23.6498 19.9103 28.2498 17.1503C28.8298 16.8003 29.0498 15.8603 28.4798 15.3803C26.3698 13.6103 24.6998 11.4703 23.6498 8.91029C22.7198 6.66029 22.2498 4.25029 21.7698 1.87029C21.4898 0.45029 19.3198 1.05029 19.5998 2.47029C20.7198 8.07029 22.3698 13.1703 26.8898 16.9703C26.9698 16.3803 27.0398 15.7903 27.1198 15.2003C22.0198 18.2503 19.4598 24.2003 18.5998 29.8703C19.3198 29.8703 20.0498 29.8703 20.7698 29.8703C19.8898 24.2303 18.4098 18.4103 13.2498 15.2003C13.2498 15.8503 13.2498 16.5003 13.2498 17.1403C18.4498 13.9003 19.8698 7.87029 21.7698 2.47029C22.2498 1.11029 20.0798 0.52029 19.5998 1.88029Z" fill="#C0C0C0"/>
<path d="M5.48965 0.880055C4.47965 3.75006 3.76965 7.22006 0.999648 8.96006C0.269648 9.41006 0.269648 10.4501 0.999648 10.9001C3.76965 12.6301 4.38965 15.9801 4.85965 18.9801C5.02965 20.0501 6.86965 20.0601 7.02965 18.9801C7.49965 15.9101 8.72965 12.5801 11.5096 10.9001C12.0896 10.5501 12.3096 9.61005 11.7396 9.13006C10.4696 8.06006 9.43965 6.78006 8.80965 5.23006C8.23965 3.84006 7.94965 2.35006 7.65965 0.880055C7.37965 -0.539945 5.20965 0.0600554 5.48965 1.48006C6.19965 5.05006 7.27965 8.30005 10.1496 10.7301C10.2296 10.1401 10.2996 9.55006 10.3796 8.96006C7.09965 10.9301 5.41965 14.7201 4.85965 18.3801C5.57965 18.3801 6.30965 18.3801 7.02965 18.3801C6.45965 14.7301 5.45965 11.0401 2.13965 8.96006C2.13965 9.61005 2.13965 10.2601 2.13965 10.9001C5.48965 8.80005 6.42965 4.98006 7.65965 1.48006C8.12965 0.110055 5.95965 -0.479945 5.48965 0.880055Z" fill="#C0C0C0"/>
<path d="M9.51977 21.42C8.86977 23.28 8.41977 25.6 6.61977 26.73C5.88977 27.18 5.88977 28.22 6.61977 28.67C8.41977 29.79 8.78977 32.04 9.08977 33.98C9.25977 35.05 11.0998 35.06 11.2598 33.98C11.5598 31.98 12.3398 29.77 14.1598 28.67C14.7398 28.32 14.9598 27.38 14.3898 26.9C13.5698 26.2 12.8998 25.39 12.4798 24.39C12.0798 23.44 11.8898 22.42 11.6898 21.42C11.5698 20.82 10.8598 20.48 10.3098 20.63C9.68977 20.8 9.39977 21.42 9.51977 22.01C10.0198 24.5 10.7898 26.79 12.7998 28.48C12.8798 27.89 12.9498 27.3 13.0298 26.71C10.7098 28.1 9.48977 30.77 9.09977 33.36C9.81977 33.36 10.5498 33.36 11.2698 33.36C10.8698 30.77 10.1198 28.18 7.75977 26.71C7.75977 27.36 7.75977 28.01 7.75977 28.65C10.1398 27.16 10.8198 24.49 11.6898 22C12.1698 20.64 9.98977 20.06 9.51977 21.42Z" fill="#C0C0C0"/>
</svg>
