<svg width="45" height="38" viewBox="0 0 45 38" fill="none" xmlns="http://www.w3.org/2000/svg">
<path d="M2.70999 16.6101C0.889995 19.6101 4.29 21.7501 6.41 23.2401C6.86 23.5601 7.49 23.9201 7.81 24.3901C8.29 25.1001 8.19 26.1501 8.08 26.9601C7.8 29.0501 6.94999 31.1201 7.50999 33.2401C8.64999 37.5801 14.12 37.9901 17.1 35.3701C18.73 33.9401 19.12 32.0001 20.24 30.2601C20.95 29.1501 21.76 29.2901 22.86 29.8601C24.02 30.4601 25.19 31.0301 26.5 31.1901C28.52 31.4401 30.57 30.5401 31.32 28.5501C31.62 27.7401 31.65 26.8501 31.28 26.0601C30.81 25.0701 29.95 24.6601 29.15 24.0001C26.99 22.2001 30.15 19.5501 31.28 18.1301C32.48 16.6301 33.4 14.6701 32.53 12.7701C31.79 11.1601 30 10.1301 28.24 10.2701C25.87 10.4601 25 12.6201 23.62 14.1801C22.78 15.1301 21.68 15.5801 20.89 14.3401C20.19 13.2601 20.3 11.9101 20.18 10.6801C19.98 8.69008 19.24 6.61008 17.14 5.93008C14.93 5.21008 13.16 6.96008 13.1 9.12008C13.04 11.1001 14.45 13.8601 13.1 15.7001C12.02 17.1801 8.82999 15.6301 7.45999 15.3101C5.60999 14.8601 3.92 14.9801 2.70999 16.6101C1.84999 17.7701 3.8 18.9001 4.65 17.7501C5.44 16.6901 7.52999 17.6601 8.50999 17.9401C9.99999 18.3601 11.66 18.7801 13.19 18.3101C16.53 17.2901 15.93 12.7901 15.47 10.2001C15.35 9.52008 15.15 7.94008 16.26 8.01008C17.39 8.09008 17.8 9.59008 17.91 10.4601C18.17 12.3701 18.01 14.2701 19.24 15.8901C20.31 17.2901 22.07 17.7901 23.67 16.9801C24.46 16.5801 25.1 15.9301 25.64 15.2401C26.25 14.4401 26.76 13.3601 27.63 12.8001C29.21 11.7801 31.08 13.4601 30.51 15.1601C29.9 17.0001 28 18.1801 27.05 19.8401C26.18 21.3701 25.77 23.2901 26.85 24.8301C27.36 25.5601 28.13 25.9201 28.79 26.4801C29.63 27.2001 29.32 28.1801 28.41 28.7201C26.37 29.9301 24.11 27.5701 22.18 27.1801C20.51 26.8401 19.17 27.7501 18.31 29.1301C17.37 30.6501 17.03 32.4201 15.66 33.6601C14.23 34.9501 11.91 35.3701 10.42 33.9101C8.82999 32.3501 9.88 29.7701 10.2 27.9201C10.49 26.2801 10.65 24.3001 9.52 22.9301C8.65 21.8801 7.36 21.2001 6.27 20.4001C5.47 19.8201 3.98 18.8601 4.66 17.7401C5.41 16.5001 3.46 15.3701 2.70999 16.6101Z" fill="#C0C0C0"/>
<path d="M20.7106 6.73996C21.4206 8.12996 23.0206 8.94996 24.5706 8.76996C25.4306 8.66996 26.2106 8.34996 26.8606 7.76996C27.4406 7.25996 27.8306 6.51996 28.0306 5.77996C28.4206 4.33996 28.0606 2.73996 26.8506 1.80996C25.5006 0.769956 23.4006 0.739956 21.9406 1.54996C21.1306 1.99996 20.4906 2.79996 20.2706 3.69996C20.0206 4.75996 20.2506 5.79996 20.7106 6.73996C20.9706 7.26996 21.7606 7.45996 22.2506 7.13996C22.7906 6.78996 22.9306 6.16996 22.6506 5.59996C22.6306 5.54996 22.5106 5.29996 22.5806 5.45996C22.6506 5.61996 22.5506 5.35996 22.5306 5.31996C22.4806 5.16996 22.4406 5.00996 22.4106 4.85996C22.4006 4.81996 22.4006 4.76996 22.3906 4.72996C22.3906 4.72996 22.4106 4.98996 22.4106 4.86996C22.4106 4.79996 22.4006 4.71996 22.4006 4.64996C22.4006 4.58996 22.4006 4.52996 22.4006 4.46996C22.4006 4.42996 22.4106 4.38996 22.4106 4.34996C22.4206 4.18996 22.4006 4.44996 22.3906 4.46996C22.4406 4.34996 22.4506 4.20996 22.4906 4.07996C22.5006 4.04996 22.5106 4.02996 22.5206 3.99996C22.5506 3.88996 22.4506 4.14996 22.4606 4.13996C22.5006 4.08996 22.5306 3.99996 22.5606 3.93996C22.5906 3.87996 22.6306 3.82996 22.6706 3.77996C22.7206 3.68996 22.5706 3.89996 22.5806 3.89996C22.6106 3.87996 22.6306 3.83996 22.6506 3.81996C22.6906 3.77996 22.7306 3.73996 22.7706 3.69996C22.8006 3.66996 22.8306 3.64996 22.8506 3.61996C22.9606 3.51996 22.7806 3.66996 22.7606 3.68996C22.9006 3.63996 23.0006 3.54996 23.1306 3.47996C23.1706 3.45996 23.4106 3.34996 23.2206 3.42996C23.0406 3.50996 23.2806 3.40996 23.3206 3.39996C23.4706 3.34996 23.6206 3.31996 23.7806 3.28996C23.8206 3.27996 23.9406 3.26996 23.7706 3.28996C23.5906 3.30996 23.7606 3.28996 23.8106 3.28996C23.9006 3.27996 23.9906 3.27996 24.0706 3.26996C24.2306 3.25996 24.4006 3.25996 24.5606 3.26996C24.6106 3.26996 24.8806 3.29996 24.6706 3.27996C24.4606 3.24996 24.7506 3.29996 24.8006 3.30996C24.9206 3.33996 25.0506 3.36996 25.1706 3.40996C25.2006 3.41996 25.2406 3.43996 25.2806 3.44996C25.2906 3.44996 25.0406 3.33996 25.1406 3.38996C25.2006 3.42996 25.2706 3.44996 25.3306 3.48996C25.3806 3.51996 25.4206 3.53996 25.4606 3.56996C25.4906 3.58996 25.5206 3.60996 25.5406 3.62996C25.6306 3.68996 25.4006 3.51996 25.4106 3.52996C25.4906 3.61996 25.5906 3.69996 25.6806 3.78996C25.8306 3.94996 25.5506 3.59996 25.6406 3.72996C25.6706 3.76996 25.7006 3.80996 25.7206 3.84996C25.7506 3.89996 25.7806 3.94996 25.8006 3.99996C25.8306 4.04996 25.9206 4.25996 25.8406 4.05996C25.7506 3.85996 25.8406 4.05996 25.8506 4.10996C25.8606 4.15996 25.8806 4.19996 25.8906 4.24996C25.9006 4.30996 25.9106 4.35996 25.9306 4.41996C25.9806 4.63996 25.9106 4.13996 25.9206 4.36996C25.9306 4.47996 25.9306 4.58996 25.9306 4.69996C25.9306 4.75996 25.9306 4.81996 25.9206 4.87996C25.9206 4.90996 25.9106 4.92996 25.9106 4.95996C25.9006 5.15996 25.9606 4.72996 25.9306 4.83996C25.8606 5.08996 25.8006 5.32996 25.7206 5.57996C25.7006 5.69996 25.8006 5.43996 25.7906 5.44996C25.7706 5.47996 25.7606 5.51996 25.7406 5.54996C25.7106 5.59996 25.6906 5.65996 25.6606 5.70996C25.6306 5.76996 25.5906 5.82996 25.5506 5.88996C25.5306 5.91996 25.5006 5.94996 25.4806 5.98996C25.4206 6.09996 25.6406 5.81996 25.5506 5.89996C25.4506 5.98996 25.3706 6.09996 25.2706 6.18996C25.2406 6.21996 25.0806 6.34996 25.2306 6.22996C25.3906 6.09996 25.1806 6.25996 25.1406 6.27996C25.0906 6.30996 25.0306 6.34996 24.9706 6.37996C24.9306 6.39996 24.7106 6.49996 24.9006 6.41996C25.0906 6.33996 24.9006 6.41996 24.8506 6.42996C24.7806 6.44996 24.7106 6.47996 24.6406 6.48996C24.5706 6.50996 24.5006 6.51996 24.4306 6.53996C24.2006 6.58996 24.6906 6.51996 24.4606 6.53996C24.3106 6.54996 24.1706 6.55996 24.0206 6.54996C23.9606 6.54996 23.8906 6.53996 23.8306 6.52996C24.2006 6.54996 23.9606 6.54996 23.8606 6.51996C23.7206 6.48996 23.5806 6.43996 23.4406 6.38996C23.3506 6.35996 23.3206 6.29996 23.5606 6.43996C23.5306 6.41996 23.4906 6.40996 23.4606 6.38996C23.3906 6.35996 23.3306 6.31996 23.2706 6.27996C23.2106 6.23996 23.1506 6.18996 23.0806 6.15996C23.0706 6.15996 23.2706 6.32996 23.2006 6.24996C23.1706 6.21996 23.1306 6.18996 23.0906 6.15996C23.0406 6.11996 22.9906 6.06996 22.9506 6.01996C22.9206 5.98996 22.7506 5.76996 22.8706 5.93996C22.9906 6.09996 22.8306 5.87996 22.8106 5.83996C22.7606 5.75996 22.7206 5.67996 22.6806 5.59996C22.4106 5.07996 21.6306 4.87996 21.1406 5.19996C20.5806 5.54996 20.4306 6.17996 20.7106 6.73996Z" fill="#C0C0C0"/>
<path d="M32.8606 23.9001C34.9106 27.6201 41.8106 27.6101 43.6206 23.6501C44.3606 22.0301 44.1706 20.0501 42.7306 18.8801C41.8606 18.1701 40.8206 17.8201 39.7206 17.6701C38.3306 17.4901 36.8006 17.5601 35.4506 17.9801C34.2306 18.3601 33.0706 19.1101 32.5606 20.3201C32.0506 21.5101 32.2806 22.7801 32.8606 23.9001C33.1406 24.4401 33.8906 24.6001 34.4006 24.3001C34.9506 23.9801 35.0806 23.3001 34.8006 22.7601C34.7506 22.6701 34.7106 22.5801 34.6706 22.4901C34.7506 22.6701 34.6706 22.4801 34.6406 22.4101C34.6106 22.3201 34.5806 22.2401 34.5606 22.1501C34.5306 22.0501 34.5006 21.7601 34.5206 22.0201C34.5006 21.8501 34.5106 21.6901 34.5106 21.5201C34.5106 21.3201 34.4506 21.6901 34.5106 21.5001C34.5406 21.4101 34.5606 21.3201 34.5806 21.2301C34.5906 21.1901 34.6106 21.1501 34.6206 21.1201C34.6206 21.1301 34.5206 21.3101 34.5906 21.2101C34.6306 21.1401 34.6706 21.0701 34.7106 21.0001C34.7306 20.9601 34.7606 20.9301 34.7806 20.9001C34.7806 20.9101 34.6506 21.0601 34.7306 20.9601C34.8106 20.8701 34.8806 20.7901 34.9706 20.7101C35.0006 20.6801 35.2006 20.5201 35.1006 20.5901C35.0006 20.6601 35.2306 20.5101 35.2606 20.4901C35.3506 20.4401 35.4306 20.3901 35.5306 20.3401C35.5806 20.3201 35.8606 20.2001 35.7106 20.2601C36.7406 19.8701 37.7806 19.7901 38.9006 19.8401C39.4206 19.8601 39.6006 19.8801 40.1506 20.0301C40.2406 20.0601 40.3406 20.0801 40.4306 20.1201C40.4706 20.1301 40.7206 20.2301 40.6006 20.1801C40.4806 20.1301 40.7106 20.2301 40.7506 20.2501C40.8406 20.2901 40.9206 20.3401 41.0106 20.3901C41.0806 20.4301 41.1406 20.4801 41.2106 20.5201C41.3706 20.6201 41.0806 20.3801 41.2506 20.5601C41.3606 20.6701 41.4706 20.7901 41.5706 20.9001C41.4606 20.7801 41.4806 20.7701 41.5606 20.9001C41.5906 20.9601 41.6306 21.0201 41.6606 21.0701C41.6906 21.1301 41.7206 21.1901 41.7506 21.2501C41.6506 21.0801 41.7006 21.1101 41.7406 21.2601C41.7606 21.3301 41.7806 21.4101 41.8006 21.4801C41.8406 21.6501 41.8006 21.5901 41.8006 21.4401C41.8006 21.5801 41.8206 21.7201 41.8206 21.8701C41.8206 21.9301 41.8006 22.0001 41.8106 22.0701C41.8106 22.1301 41.8606 21.8201 41.8106 22.0401C41.7806 22.1801 41.7506 22.3301 41.7006 22.4701C41.6806 22.5201 41.5906 22.7601 41.6606 22.5901C41.7306 22.4201 41.6306 22.6401 41.6106 22.6801C41.5306 22.8501 41.4306 23.0001 41.3206 23.1501C41.4306 22.9901 41.3306 23.1301 41.2706 23.2001C41.2106 23.2701 41.1506 23.3301 41.0806 23.3901C41.0206 23.4501 40.9506 23.5101 40.8806 23.5701C40.8606 23.5801 40.7406 23.6701 40.8506 23.5901C40.9706 23.5001 40.7406 23.6601 40.7406 23.6601C40.5906 23.7601 40.4306 23.8501 40.2606 23.9401C40.1906 23.9801 40.0106 24.0601 40.1906 23.9801C40.0906 24.0201 39.9806 24.0601 39.8806 24.1001C39.7006 24.1601 39.5106 24.2101 39.3306 24.2601C39.2406 24.2801 39.1406 24.3001 39.0506 24.3201C38.9906 24.3301 38.9206 24.3401 38.8606 24.3501C38.6906 24.3801 39.0406 24.3301 38.8706 24.3501C38.4106 24.3901 37.9606 24.3901 37.5006 24.3501C37.3706 24.3401 37.5406 24.3601 37.5606 24.3601C37.5006 24.3501 37.4306 24.3401 37.3706 24.3301C37.2406 24.3101 37.1206 24.2801 36.9906 24.2501C36.7706 24.2001 36.5606 24.1201 36.3506 24.0601C36.1706 24.0001 36.4606 24.1201 36.2306 24.0101C36.1306 23.9601 36.0406 23.9201 35.9406 23.8601C35.8506 23.8101 35.7506 23.7501 35.6606 23.6901C35.5906 23.6501 35.3906 23.4901 35.5606 23.6301C35.3806 23.4901 35.2306 23.3301 35.0806 23.1701C34.9106 22.9901 35.1006 23.2401 35.0106 23.0801C34.9506 22.9801 34.8806 22.8801 34.8206 22.7701C34.1106 21.5001 32.1606 22.6301 32.8606 23.9001Z" fill="#C0C0C0"/>
<path d="M5.05016 10.9601C5.97016 11.5001 7.07016 11.9101 8.15016 11.8001C9.18016 11.7001 10.0902 11.2201 10.6602 10.3401C11.8802 8.44012 10.8402 5.96012 9.66016 4.32012C8.48016 2.69012 6.61016 0.960125 4.45016 1.08012C2.38016 1.19012 0.730159 3.05012 0.840159 5.12012C0.980159 7.66012 2.99016 9.70012 5.05016 10.9601C5.55016 11.2701 6.31016 11.0901 6.59016 10.5601C6.88016 10.0101 6.72016 9.35013 6.19016 9.02013C5.97016 8.89013 5.76016 8.75012 5.55016 8.60012C5.50016 8.57012 5.31016 8.42012 5.34016 8.45012C5.42016 8.51012 5.28016 8.40013 5.28016 8.40013C5.22016 8.35012 5.17016 8.31013 5.11016 8.26013C4.76016 7.97013 4.43016 7.65013 4.14016 7.30013C4.11016 7.26013 3.91016 7.02012 3.98016 7.11013C4.05016 7.20013 3.89016 6.99012 3.87016 6.95012C3.76016 6.79012 3.65016 6.62012 3.55016 6.44012C3.50016 6.35012 3.45016 6.26013 3.41016 6.17013C3.39016 6.13013 3.28016 5.89013 3.34016 6.03013C3.40016 6.17013 3.30016 5.93012 3.29016 5.89012C3.25016 5.79012 3.22016 5.68012 3.19016 5.58012C3.17016 5.50012 3.15016 5.43012 3.13016 5.35012C3.12016 5.28012 3.12016 5.08012 3.11016 5.23012C3.09016 5.39012 3.11016 5.17013 3.11016 5.12012C3.10016 5.02012 3.10016 4.92012 3.11016 4.83012C3.11016 4.78012 3.16016 4.55012 3.11016 4.73012C3.06016 4.91013 3.12016 4.68012 3.13016 4.63013C3.15016 4.56013 3.16016 4.49012 3.18016 4.42013C3.19016 4.38013 3.22016 4.33012 3.23016 4.29012C3.25016 4.16012 3.13016 4.47012 3.20016 4.36012C3.27016 4.24012 3.33016 4.11012 3.41016 3.99012C3.53016 3.81012 3.34016 4.05013 3.47016 3.91013C3.54016 3.84013 3.61016 3.76012 3.69016 3.69012C3.72016 3.66013 3.92016 3.51012 3.80016 3.59012C3.67016 3.67012 3.89016 3.54012 3.92016 3.52012C4.00016 3.47012 4.08016 3.44012 4.16016 3.39013C3.97016 3.49012 4.09016 3.42013 4.21016 3.39013C4.28016 3.37013 4.36016 3.36012 4.43016 3.34012C4.55016 3.30012 4.32016 3.37012 4.32016 3.35012C4.32016 3.35012 4.48016 3.34012 4.47016 3.34012C4.55016 3.34012 4.62016 3.34012 4.70016 3.34012C4.74016 3.34012 4.78016 3.34012 4.81016 3.35012C4.87016 3.35012 4.99016 3.40012 4.85016 3.35012C4.69016 3.29012 4.92016 3.37013 4.97016 3.38013C5.06016 3.40013 5.15016 3.43012 5.24016 3.45012C5.32016 3.47012 5.40016 3.50012 5.47016 3.53012C5.50016 3.54012 5.62016 3.60012 5.49016 3.54012C5.35016 3.47012 5.53016 3.56012 5.55016 3.57012C5.72016 3.66012 5.89016 3.75012 6.05016 3.85012C6.13016 3.90012 6.20016 3.95012 6.28016 4.00012C6.32016 4.03012 6.35016 4.06012 6.39016 4.08012C6.53016 4.17012 6.26016 3.97012 6.39016 4.08012C6.73016 4.37012 7.06016 4.67013 7.35016 5.00012C7.42016 5.08012 7.48016 5.16012 7.55016 5.23012C7.59016 5.27012 7.74016 5.47012 7.63016 5.33012C7.78016 5.53012 7.92016 5.73012 8.05016 5.94012C8.16016 6.12012 8.27016 6.30012 8.37016 6.49012C8.42016 6.58012 8.47016 6.68012 8.52016 6.77012C8.55016 6.83012 8.58016 6.90013 8.61016 6.96012C8.64016 7.02012 8.68016 7.11013 8.63016 7.00012C8.71016 7.19012 8.78016 7.39013 8.83016 7.59013C8.86016 7.70013 8.88016 7.81012 8.91016 7.92013C8.92016 7.97013 8.92016 8.01012 8.94016 8.06012C8.92016 7.98012 8.92016 7.89013 8.94016 8.03013C8.95016 8.20013 8.96016 8.37013 8.95016 8.53013C8.95016 8.55013 8.95016 8.68012 8.94016 8.69012C8.93016 8.70013 8.99016 8.45012 8.95016 8.58012C8.93016 8.66012 8.92016 8.75012 8.89016 8.84013C8.87016 8.91013 8.76016 9.10013 8.85016 8.98012C8.95016 8.83012 8.79016 9.08012 8.77016 9.12012C8.75016 9.15012 8.73016 9.18013 8.72016 9.21012C8.64016 9.37012 8.78016 9.14013 8.78016 9.14013C8.79016 9.17013 8.64016 9.29012 8.62016 9.31013C8.60016 9.33013 8.57016 9.35013 8.55016 9.38013C8.42016 9.52013 8.71016 9.30013 8.59016 9.35013C8.52016 9.38013 8.45016 9.43013 8.39016 9.47013C8.36016 9.49013 8.33016 9.50012 8.30016 9.51013C8.20016 9.57013 8.49016 9.46012 8.38016 9.47013C8.30016 9.48013 8.22016 9.52012 8.14016 9.54012C8.15016 9.54012 8.00016 9.56012 8.00016 9.57012C8.01016 9.55012 8.26016 9.55013 8.08016 9.56013C7.99016 9.56013 7.90016 9.57012 7.81016 9.57012C7.72016 9.57012 7.62016 9.56013 7.53016 9.55013C7.79016 9.57013 7.51016 9.54013 7.41016 9.52013C7.20016 9.47013 6.99016 9.40012 6.78016 9.32012C6.98016 9.40012 6.64016 9.25012 6.58016 9.22013C6.45016 9.15013 6.32016 9.08012 6.19016 9.01013C5.68016 8.71012 4.93016 8.88013 4.65016 9.41012C4.36016 9.96012 4.51016 10.6401 5.05016 10.9601Z" fill="#C0C0C0"/>
</svg>
