<svg width="35" height="25" viewBox="0 0 35 25" fill="none" xmlns="http://www.w3.org/2000/svg">
<path fill-rule="evenodd" clip-rule="evenodd" d="M17.8068 17.7497C12.8356 17.7497 8.06952 18.8992 3.82757 21.0914C2.73031 21.6597 2.44944 22.9722 3.12591 23.8812L3.12706 23.8828C3.70559 24.6626 4.82202 24.932 5.73194 24.4667L5.73198 24.4666C13.1255 20.6856 22.4835 20.6854 29.8771 24.4661C30.7917 24.9328 31.9084 24.6619 32.4865 23.8828L32.4876 23.8812C33.165 22.9708 32.8816 21.6564 31.7869 21.0919L31.7856 21.0912C27.5474 18.8993 22.7781 17.7497 17.8068 17.7497ZM31.2236 0C33.325 0 34.9372 1.62361 34.9372 3.50992C34.9372 5.39622 33.325 7.01984 31.2236 7.01984C29.1223 7.01984 27.51 5.39623 27.51 3.50992C27.51 1.62361 29.1223 0 31.2236 0ZM4.38987 0C6.49126 0 8.10347 1.62361 8.10347 3.50992C8.10347 5.39622 6.49126 7.01984 4.38987 7.01984C2.28849 7.01984 0.67627 5.39622 0.67627 3.50992C0.67627 1.62361 2.28849 0 4.38987 0Z" fill="white"/>
</svg>
