<svg width="41.06459045410156" height="46.720001220703125" fill="none" xmlns="http://www.w3.org/2000/svg">
  <path
    d="M 41.06459045410156 42.762839112523686 C 38.681785684956154 43.99679203878769 37.061129558640374 44.97544491778386 33.699672649582894 45.69879655601418 C 30.338215740525413 46.379598124205174 26.912933549207608 46.720001220703125 23.423825478880563 46.720001220703125 C 18.402914811548488 46.720001220703125 14.126629552966913 46.14557635677982 10.5949717917571 44.99672371978173 C 7.105864616553454 43.80532101274431 4.467759762677422 42.16714022059469 2.6806558874439 40.08218522220151 C 0.8935520122103779 37.95468022836263 0 35.529328250148964 0 32.80612227575951 C 0 30.550966400460005 0.5957014906608189 28.529840721665778 1.7871040244207557 26.742736884890533 C 3.021056771218775 24.95563304811529 4.765610731788682 23.572751781078097 7.0207655331623915 22.59409949883094 C 5.318761636443334 21.657998032559384 4.020983458197765 20.445322491014316 3.1274316697682383 18.95606802560994 C 2.276429870595943 17.424265205819676 1.8509290083066037 15.743537103594957 1.8509290083066037 13.913882525437735 C 1.8509290083066037 11.40342622990227 2.6593807436280503 9.105719762408043 4.2762840650837095 7.020766554261926 C 5.9357373757966005 4.893261262048537 8.446192858649871 3.1912545816068403 11.807650364456288 1.9147503918054711 C 15.211657561145469 0.6382487381874413 19.381565757962697 0 24.31737585003137 0 C 27.33843254665653 0 30.085417376514297 0.09511642320919722 33.189070391500366 0.8297267014381914 C 36.29272340648644 1.5643369796671855 36.954754287122825 13.913882525437735 36.954754287122825 13.913882525437735 C 32.95504664408346 12.296979416381562 28.934061321045277 11.48852741429171 24.89180160012741 11.48852741429171 C 22.253695701940742 11.48852741429171 20.27511881448371 11.786376636475325 18.95606646213931 12.382077915400407 C 17.679563800677677 12.977779194325489 17.041311574823457 13.807506268731819 17.041311574823457 14.871258914838513 C 17.041311574823457 15.764810833226136 17.360437016408014 16.445613371134286 17.998689018481382 16.91366347022423 C 18.636939752463267 17.38171483740584 19.700693064387675 17.615741080448853 21.18994597050994 17.615741080448853 L 34.27409839967893 17.615741080448853 L 34.27409839967893 28.721313164988086 L 20.16874384134063 28.721313164988086 C 18.509290083066038 28.721313164988086 17.254062117858552 28.99789208884739 16.403061139216042 29.55104255179687 C 15.594608434177578 30.06164410090825 15.190381373018985 30.80627010281558 15.190381373018985 31.78492238506274 C 15.190381373018985 34.08262780824618 18.126338389504145 35.231482160897706 23.9982512289766 35.231482160897706 C 26.25340603035031 35.231482160897706 28.636211396244647 34.93363055171801 31.14666613316175 34.33792927279293 C 33.69967145608502 33.69967784923489 34.70335303654541 32.86994831323885 36.66065731636956 31.848745886358735 L 41.06459045410156 42.762839112523686 Z"
    fill="rgb(255,255,255)" />
</svg>