<svg 
          width="43.784053802490234" 
          height="45.69879913330078" fill="none" 
          xmlns="http://www.w3.org/2000/svg">
          <path d="M 27.125687165698118 0 C 32.40189801817018 0 36.486706131334536 1.7232783132082887 39.38011329543807 5.169834641250371 C 42.316069854062754 8.616393654662918 43.78405380249024 13.509655427432461 43.78405380249024 19.849618766061017 L 43.78405380249024 45.69879913330078 L 28.721317507442134 45.69879913330078 L 28.721317507442134 20.296392801641247 C 28.721317507442134 17.573187554903168 28.125614347541394 15.552058989517903 26.93421190660817 14.23300531523848 C 25.785359009383328 12.871402095120446 24.168456506561828 12.190600858029551 22.083502160335065 12.190600858029551 C 19.998546620610377 12.190600858029551 18.2965413006911 12.913951193397313 16.977488885947565 14.36065469869055 C 15.700986164099653 15.807358353171034 15.062736295048103 17.956138689004337 15.062736295048103 20.806995109441463 L 15.062736295048103 45.69879913330078 L 0 45.69879913330078 L 0 1.0211998416084949 L 14.615957507843762 1.0211998416084949 L 14.615957507843762 5.808088719498627 C 17.63701434738313 1.9360291753335472 21.806925725206987 0 27.125687165698118 0 Z" fill="rgb(255,255,255)"/>
        </svg>