<svg 
          width="19.968305587768555" 
          height="22.718334197998047" fill="none" 
          xmlns="http://www.w3.org/2000/svg">
          <path d="M 19.968305587768555 20.79410198694585 C 18.809629140246955 21.39413097305471 18.02155950591969 21.87001630242015 16.38699800079036 22.22175739468501 C 14.75243649566103 22.552807847265697 13.086838939123272 22.718334197998047 11.390205040998493 22.718334197998047 C 8.94870794032158 22.718334197998047 6.869296703546468 22.439011088210407 5.15197234629823 21.880363454014535 C 3.45533888344134 21.30102518013449 2.172518738098564 20.504434046992476 1.3035112573680683 19.490591940749272 C 0.4345037766375722 18.45605923109422 0 17.27669374844913 0 15.952492083215668 C 0 14.855887128057194 0.28966925696969625 13.87308303072648 0.8690075532751442 13.004075728723384 C 1.4690365626103192 12.135068426720288 2.3173534754003846 11.462620696415433 3.41395811028372 10.986735657228573 C 2.5863318379787335 10.531541620449111 1.9552667046904817 9.941859096760503 1.520763036869882 9.21768572846177 C 1.106949973262037 8.472822554742288 0.9000434595942763 7.655542123992042 0.9000434595942763 6.76584385585387 C 0.9000434595942763 5.545095062590364 1.2931658827170427 4.4277992138414595 2.079410656417927 3.413957978134 C 2.8863460343315657 2.3794251233896553 4.10709465721467 1.5517976498619945 5.741656452522593 0.931077443711799 C 7.3969087069539725 0.31035847082057566 9.424592417572123 0 11.824708019644934 0 C 13.293744545982928 0 14.629509299046129 0.046251854317743535 16.138709589522932 0.403467637066806 C 17.647909879999737 0.7606834198158685 17.969832850298506 6.76584385585387 17.969832850298506 6.76584385585387 C 16.024911846709966 5.979599330221398 14.069644235211381 5.586476849771226 12.104031611785013 5.586476849771226 C 10.821210958629699 5.586476849771226 9.859096702022233 5.731310710930944 9.21768666562317 6.020979811598643 C 8.596967088347563 6.310648912266342 8.286606864441872 6.7141167306947604 8.286606864441872 7.231383158066933 C 8.286606864441872 7.665886809068481 8.4417866499438 7.996937733189364 8.75214676503252 8.224534443264352 C 9.06250626349173 8.452131769968826 9.579773109882154 8.565930705363483 10.30394585331083 8.565930705363483 L 16.666321592930437 8.565930705363483 L 16.666321592930437 13.96618951282083 L 9.807370191490348 13.96618951282083 C 9.000434595942764 13.96618951282083 8.390060175684239 14.100680357430953 7.976247511071959 14.369658455691253 C 7.583124616408979 14.617946476488383 7.38656282449041 14.980032562144425 7.38656282449041 15.455917601331285 C 7.38656282449041 16.573212942267673 8.814218287492192 17.131861410726966 11.66952863313857 17.131861410726966 C 12.766133268021907 17.131861410726966 13.924810005722097 16.98702638885292 15.145558265881961 16.697357288185223 C 16.386997420433172 16.38699751156103 16.875053438764795 15.98352849614596 17.826823553980255 15.486952781002605 L 19.968305587768555 20.79410198694585 Z" fill="rgb(255,255,255)"/>
        </svg>