<svg width="92" height="23" viewBox="0 0 92 23" fill="none" xmlns="http://www.w3.org/2000/svg">
<path d="M80.827 0C82.9375 0 84.7996 0.424159 86.4135 1.27248C88.0274 2.1001 89.2792 3.32085 90.1689 4.93472C91.0793 6.5279 91.5345 8.43144 91.5345 10.6453V21.7754C91.5345 22.0219 91.3346 22.2218 91.0881 22.2218H84.6563C84.4098 22.2218 84.21 22.0219 84.21 21.7754V17.8457H77.32V21.7754C77.32 22.0219 77.1201 22.2218 76.8736 22.2218H70.566C70.3195 22.2218 70.1196 22.0219 70.1196 21.7754V10.6453C70.1196 8.43144 70.5645 6.5279 71.4542 4.93472C72.3646 3.32085 73.6267 2.1001 75.2406 1.27248C76.8544 0.424159 78.7166 0 80.827 0ZM84.21 12.3213V10.0246C84.21 8.67973 83.8893 7.66589 83.2478 6.98309C82.6271 6.27961 81.7995 5.92787 80.765 5.92787C79.7304 5.92787 78.8925 6.27961 78.251 6.98309C77.6303 7.66589 77.32 8.67973 77.32 10.0246V12.3213H84.21Z" fill="white"/>
<path d="M58.8548 0C61.4205 0 63.4068 0.837971 64.8138 2.51391C66.2414 4.18986 66.9552 6.56928 66.9552 9.65219V21.7754C66.9552 22.0219 66.7554 22.2218 66.5089 22.2218H60.0771C59.8306 22.2218 59.6307 22.0219 59.6307 21.7754V9.86944C59.6307 8.54524 59.3411 7.56243 58.7617 6.92102C58.2031 6.25892 57.4168 5.92787 56.403 5.92787C55.3892 5.92787 54.5615 6.27961 53.9201 6.98309C53.2994 7.68658 52.989 8.73145 52.989 10.1177V21.7754C52.989 22.0219 52.7892 22.2218 52.5427 22.2218H46.1109C45.8644 22.2218 45.6646 22.0219 45.6646 21.7754V0.942948C45.6646 0.696423 45.8644 0.496574 46.1109 0.496574H52.3254C52.5719 0.496574 52.7718 0.696422 52.7718 0.942947V2.82427C54.2408 0.941425 56.2685 0 58.8548 0Z" fill="white"/>
<path d="M30.7788 15.0214L29.2482 16.7253C29.1747 16.8072 29.1339 16.9135 29.1339 17.0236V21.7754C29.1339 22.0219 28.9341 22.2218 28.6876 22.2218H22.38C22.1334 22.2218 21.9336 22.0219 21.9336 21.7754V0.942956C21.9336 0.696431 22.1334 0.496582 22.38 0.496582H28.6876C28.9341 0.496582 29.1339 0.69643 29.1339 0.942955V8.37972L36.1393 0.643341C36.2239 0.549891 36.3441 0.496582 36.4702 0.496582H43.2394C43.6269 0.496582 43.8304 0.95648 43.5697 1.24322L35.8065 9.7827C35.6625 9.94112 35.6513 10.1795 35.7797 10.3508L44.1473 21.5076C44.368 21.8018 44.1581 22.2218 43.7902 22.2218H36.4326C36.2925 22.2218 36.1606 22.156 36.0762 22.0442L30.7788 15.0214Z" fill="white"/>
<path d="M19.8163 20.4175C19.9025 20.631 19.812 20.8752 19.6081 20.9822C18.6316 21.4944 17.8469 21.9076 16.387 22.2218C14.7524 22.5528 13.0868 22.7183 11.3902 22.7183C8.94871 22.7183 6.8693 22.439 5.15197 21.8804C3.45534 21.301 2.17252 20.5044 1.30351 19.4906C0.434504 18.4561 0 17.2767 0 15.9525C0 14.8559 0.289669 13.8731 0.869008 13.0041C1.46904 12.1351 2.31735 11.4626 3.41396 10.9867C2.58633 10.5315 1.95527 9.94186 1.52076 9.21769C1.10695 8.47282 0.900043 7.65554 0.900043 6.76584C0.900043 5.54509 1.29317 4.4278 2.07941 3.41396C2.88635 2.37943 4.10709 1.5518 5.74166 0.931077C7.39691 0.310358 9.42459 0 11.8247 0C13.2937 0 14.6295 0.0462519 16.1387 0.403468C17.3281 0.684993 17.7801 4.47455 17.9182 6.06785C17.9465 6.39342 17.6217 6.62606 17.3141 6.5158C15.5856 5.89625 13.8489 5.58648 12.104 5.58648C10.8212 5.58648 9.8591 5.73131 9.21769 6.02098C8.59697 6.31065 8.28661 6.71412 8.28661 7.23138C8.28661 7.66589 8.44179 7.99694 8.75215 8.22453C9.06251 8.45213 9.57977 8.56593 10.3039 8.56593H16.2199C16.4665 8.56593 16.6663 8.76578 16.6663 9.0123V13.5198C16.6663 13.7663 16.4665 13.9662 16.2199 13.9662H9.80737C9.00043 13.9662 8.39006 14.1007 7.97625 14.3697C7.58313 14.6179 7.38656 14.98 7.38656 15.4559C7.38656 16.5732 8.81422 17.1319 11.6695 17.1319C12.7661 17.1319 13.9248 16.987 15.1456 16.6974C16.1852 16.4374 16.6965 16.1122 17.3942 15.7217C17.6243 15.593 17.9123 15.6988 18.011 15.9433L19.8163 20.4175Z" fill="white"/>
</svg>
