<svg 
          width="44.039337158203125" 
          height="45.69879913330078" fill="none" 
          xmlns="http://www.w3.org/2000/svg">
          <path d="M 22.019663805109982 0 C 26.35977295330945 0 30.189290573233325 0.8722772517032251 33.50819816566422 2.61683145673518 C 36.827105758095115 4.3188335797453075 39.40137390115052 6.829288561107122 41.23102706153731 10.148196400820623 C 43.10323230077549 13.424554545508267 44.039337158203125 17.339163486324708 44.039337158203125 21.892023223269945 L 44.039337158203125 45.69879913330078 L 28.97661077931021 45.69879913330078 L 28.97661077931021 36.69945434453669 L 14.807422857018798 36.69945434453669 L 14.807422857018798 45.69879913330078 L 0 45.69879913330078 L 0 21.892023223269945 C 0 17.339163486324708 0.9148279228785265 13.424554545508267 2.744481829201499 10.148196400820623 C 4.616686173316254 6.829288561107122 7.2122418432146045 4.3188335797453075 10.531148540522077 2.61683145673518 C 13.85005523782955 0.8722772517032251 17.679553463412617 0 22.019663805109982 0 Z M 28.97661077931021 25.338580446435518 L 28.97661077931021 20.615519840765373 C 28.97661077931021 17.849762512005466 28.317071459582106 15.764807464647191 26.99802041976474 14.36065469869055 C 25.721517729117835 12.913951193397313 24.01951230161271 12.190600858029551 21.892007270181338 12.190600858029551 C 19.764502238749966 12.190600858029551 18.041227783619284 12.913951193397313 16.722175401116782 14.36065469869055 C 15.44567271046988 15.764807464647191 14.807422857018798 17.849762512005466 14.807422857018798 20.615519840765373 L 14.807422857018798 25.338580446435518 L 28.97661077931021 25.338580446435518 Z" fill="rgb(255,255,255)"/>
        </svg>