<svg 
          width="21.41482162475586" 
          height="22.221759796142578" fill="none" 
          xmlns="http://www.w3.org/2000/svg">
          <path d="M 10.707408490949298 0 C 12.81785495173011 0 14.680018236452794 0.4241585321847914 16.293889349581406 1.2724754514650827 C 17.907760462710016 2.1001007516339705 19.159538910232694 3.3208489689366862 20.049236589471164 4.93472010337323 C 20.959625887547848 6.527900779412702 21.41482162475586 8.431440943015506 21.41482162475586 10.645340594181643 L 21.41482162475586 22.221759796142578 L 14.090333578359074 22.221759796142578 L 14.090333578359074 17.845686857436924 L 7.200342686046195 17.845686857436924 L 7.200342686046195 22.221759796142578 L 0 22.221759796142578 L 0 10.645340594181643 C 0 8.431440943015506 0.4448494925210379 6.527900779412702 1.3345475344827324 4.93472010337323 C 2.2449363972915473 3.3208489689366862 3.507066240170971 2.1001007516339705 5.120936918031714 1.2724754514650827 C 6.734807595892457 0.4241585321847914 8.596961449811328 0 10.707408490949298 0 Z M 14.090333578359074 12.321283248898698 L 14.090333578359074 10.02462074851923 C 14.090333578359074 8.679727749583998 13.769622191724151 7.665885567144922 13.128212839213584 6.983094201201999 C 12.50749329192511 6.279611869049484 11.679866334156527 5.9278713921473605 10.645333489345372 5.9278713921473605 C 9.610800644534217 5.9278713921473605 8.77283128694483 6.279611869049484 8.13142128153246 6.983094201201999 C 7.510701734243985 7.665885567144922 7.200342686046195 8.679727749583998 7.200342686046195 10.02462074851923 L 7.200342686046195 12.321283248898698 L 14.090333578359074 12.321283248898698 Z" fill="rgb(255,255,255)"/>
        </svg>