<svg 
          width="21.290687561035156" 
          height="22.221759796142578" fill="none" 
          xmlns="http://www.w3.org/2000/svg">
          <path d="M 13.190293729504162 0 C 15.755934573836775 0 17.742237022588505 0.8379711822692351 19.14920194629517 2.513913401718414 C 20.576857184990654 4.189856926971215 21.290687561035156 6.569282421653305 21.290687561035156 9.652189305407514 L 21.290687561035156 22.221759796142578 L 13.966194179979295 22.221759796142578 L 13.966194179979295 9.86944020674646 C 13.966194179979295 8.545238826922635 13.676524111653036 7.5624332751595595 13.097185861161455 6.9210226809214905 C 12.538537998203342 6.258921700830994 11.752293623492877 5.9278713921473605 10.738451648860286 5.9278713921473605 C 9.724609093870482 5.9278713921473605 8.89698213047679 6.279611869049484 8.255572064482939 6.983094201201999 C 7.634852458567209 7.686576605899161 7.32449338105586 8.731454838657076 7.32449338105586 10.11772860929716 L 7.32449338105586 22.221759796142578 L 0 22.221759796142578 L 0 0.49657448367273405 L 7.107240140636975 0.49657448367273405 L 7.107240140636975 2.8242744852639525 C 8.576276734756608 0.941424634968929 10.60396198982552 0 13.190293729504162 0 Z" fill="rgb(255,255,255)"/>
        </svg>