<svg width="18" height="18" viewBox="0 0 18 18" fill="none" xmlns="http://www.w3.org/2000/svg">
<rect width="18" height="18" rx="9" fill="#5344BA"/>
<path d="M8.83333 4C6.99802 4 5.5 5.42993 5.5 7.18182C5.5 8.77901 6.74645 10.1049 8.35714 10.3272V11.7273H6.92857V12.6364H8.35714V14H9.30952V12.6364H10.7381V11.7273H9.30952V10.3272C10.9202 10.1049 12.1667 8.77901 12.1667 7.18182C12.1667 5.42993 10.6686 4 8.83333 4ZM8.83333 4.90909C10.1539 4.90909 11.2143 5.92124 11.2143 7.18182C11.2143 8.44239 10.1539 9.45455 8.83333 9.45455C7.51273 9.45455 6.45238 8.44239 6.45238 7.18182C6.45238 5.92124 7.51273 4.90909 8.83333 4.90909Z" fill="white"/>
</svg>
