<svg 
          width="14.53125" 
          height="15" fill="none" 
          xmlns="http://www.w3.org/2000/svg">
          <path d="M 7.414342880249023 6.1787109375 L 7.414342880249023 9.0439453125 L 11.447212219238281 9.0439453125 C 10.920304954051971 10.781249761581421 9.487232208251953 12.0234375 7.414342880249023 12.0234375 C 4.9448254108428955 12.0234375 2.941418409347534 9.999023199081421 2.941418409347534 7.5 C 2.941418409347534 5.000976800918579 4.9448254108428955 2.9765625 7.414342880249023 2.9765625 C 8.523165106773376 2.9765625 9.536448240280151 3.38671875 10.318124771118164 4.06640625 L 12.405489921569824 1.954101800918579 C 11.088220715522766 0.7412108182907104 9.336687207221985 0 7.414342880249023 0 C 3.3177804946899414 0 0 3.357422351837158 0 7.5 C 0 11.642578601837158 3.3177804946899414 15 7.414342880249023 15 C 13.635905742645264 15 15.008182048797607 9.111328601837158 14.400211334228516 6.1904296875 L 7.414342880249023 6.1787109375 Z" fill="rgb(255,255,255)"/>
        </svg>