<svg width="375" height="181" viewBox="0 0 375 181" fill="none" xmlns="http://www.w3.org/2000/svg">
<path fill-rule="evenodd" clip-rule="evenodd" d="M238.992 86.2297C245.732 86.087 251.937 90.1538 254.326 96.4503C254.466 96.8209 254.488 97.2058 254.422 97.5772C255.93 104.146 253.165 111.333 247.497 115.108C242.095 118.729 234.41 118.8 229.079 115.001C223.659 111.13 220.521 103.995 222.375 97.4313C224.318 90.5819 232.253 86.3902 238.992 86.2297Z" fill="#F6C550"/>
<path fill-rule="evenodd" clip-rule="evenodd" d="M215.139 174.466C214.845 174.969 214.374 175.39 213.699 175.633C213.191 175.813 212.684 175.993 212.179 176.173C205.31 178.616 198.671 180.977 191.198 180.878C182.871 180.77 174.634 178.487 168.732 172.423C159.674 163.13 154.218 147.719 157.945 134.947C160.138 127.438 165.933 122.123 172.387 118.074C179.608 113.543 188.202 111.188 196.725 111.973C205.319 112.776 213.485 116.094 219.637 122.247C224.95 127.545 228.427 134.305 229.407 141.725C231.045 154.075 226.734 168.6 215.139 174.466Z" fill="#EC6373"/>
<path fill-rule="evenodd" clip-rule="evenodd" d="M378.516 106.143C379.906 106.429 381.422 107.178 382.313 108.319C382.435 108.473 382.544 108.624 382.639 108.774C382.9 108.975 383.12 109.224 383.276 109.515C385.131 113.011 384.578 117.666 381.636 120.431C378.926 122.981 374.914 123.374 371.615 121.786C370.118 121.073 368.798 119.753 368.103 118.255C367.301 116.524 367.069 114.705 367.372 112.814C367.907 109.515 370.492 107.107 373.648 106.286C375.253 105.876 376.893 105.822 378.516 106.143Z" fill="#72CAB5"/>
<path fill-rule="evenodd" clip-rule="evenodd" d="M164.589 78.2327C164.472 78.0249 164.324 77.8288 164.142 77.6501C164.07 77.5579 163.981 77.473 163.879 77.3958C162.366 75.9702 160.454 74.7585 158.383 74.4216C156.315 74.0827 154.282 74.3146 152.428 75.3313C148.898 77.2577 147.293 81.5029 148.292 85.32C149.272 89.0479 152.553 92.4905 156.44 93.1504C159.685 93.7034 163.322 92.8472 165.444 90.1895C166.71 88.602 167.459 86.6043 167.263 84.553C167.004 82.1452 165.985 80.118 164.589 78.2327Z" fill="#5344B9"/>
<path fill-rule="evenodd" clip-rule="evenodd" d="M301.057 2.01609C300.57 0.8385 299.485 -0.0157796 298.034 0.413378C286.855 3.67754 275.176 8.13679 268.472 18.3752C262.534 27.4364 261.447 39.6369 265.191 49.7326C269.042 60.1494 277.351 68.4971 287.282 73.2774C287.421 73.3445 287.568 73.4163 287.723 73.4921C291.408 75.2907 299.599 79.2894 301.19 73.3844C301.486 72.3067 301.365 71.1068 301.25 69.9616C301.213 69.5905 301.176 69.2252 301.154 68.8717C301.047 67.1236 300.94 65.3578 300.851 63.6098C300.655 59.8105 300.494 56.0112 300.37 52.1941C299.853 35.8019 300.377 19.8579 301.375 3.4836C301.414 2.90992 301.29 2.41939 301.057 2.01609Z" fill="#72CAB5"/>
<path fill-rule="evenodd" clip-rule="evenodd" d="M301.29 76.5477C309.363 74.7623 317.602 79.9682 320.121 87.6936C320.341 88.3672 320.28 88.9557 320.04 89.4325C320.554 94.9792 319.309 100.657 314.217 103.828C310.531 106.131 305.877 106.448 301.707 105.681C300.09 105.38 298.388 104.863 296.987 103.962C294.135 102.127 292.15 98.9062 291.2 95.7026C288.898 87.9439 292.934 78.3998 301.29 76.5477Z" fill="#5344BA"/>
<path fill-rule="evenodd" clip-rule="evenodd" d="M135.251 84.7204C135.21 89.5339 135.17 94.3475 135.17 99.1611C135.17 102.254 130.851 102.568 130 100.116L101.323 100.116C101.316 100.398 101.312 100.68 101.31 100.963C101.293 104.405 95.9436 104.405 95.9615 100.963C95.9971 91.7766 98.7608 82.9116 104.859 75.9374C111.331 68.5172 121.619 63.2018 131.461 62.2564C133.244 62.0781 134.849 62.738 135.187 64.7179C135.483 66.4257 135.427 68.2536 135.372 70.0353C135.351 70.7287 135.33 71.415 135.33 72.0846C135.322 76.2965 135.286 80.5084 135.251 84.7204ZM131.952 67.5667C131.983 67.566 132.018 67.5673 132.053 67.5685C132.135 67.5714 132.22 67.5745 132.281 67.554C132.298 67.5453 132.324 67.5493 132.352 67.5536C132.382 67.5582 132.414 67.5632 132.442 67.554C132.296 67.6286 132.129 67.6248 131.952 67.5667ZM129.958 65.6276C129.863 65.4504 129.854 65.3193 129.874 65.2981C129.893 65.2769 129.94 65.3655 129.958 65.6276Z" fill="#EF8361"/>
<path fill-rule="evenodd" clip-rule="evenodd" d="M132.388 62.0967C132.352 47.952 127.502 33.2008 113.648 27.1006C99.9728 21.0717 81.0552 22.4273 70.0006 33.1473C63.457 39.4973 59.6057 48.9152 59.2313 58.0121C59.1065 60.9017 59.7662 63.0064 63.0647 63.1848C66.5639 63.3591 70.1136 63.2612 73.6378 63.164C74.8004 63.1319 75.9603 63.0999 77.1148 63.0778C90.6916 62.8244 104.269 62.4711 117.845 62.0967L132.388 62.0967Z" fill="#72CAB5"/>
<path fill-rule="evenodd" clip-rule="evenodd" d="M63.6507 63.3982C82.7644 65.8954 94.5322 83.34 94.7283 101.783C94.7315 102.094 94.6913 102.377 94.6154 102.632C94.2723 110.731 91.8372 118.576 86.7583 124.989C82.069 130.911 75.3828 135.067 68.126 137.047C54.914 140.65 40.0794 137.101 30.3443 127.362C19.5571 116.588 16.9896 100.374 22.8379 86.4436C29.5954 70.3368 46.4091 61.1508 63.6507 63.3982Z" fill="#5344BA"/>
<path fill-rule="evenodd" clip-rule="evenodd" d="M225.755 2.19299C224.975 2.57943 224.393 3.34038 224.393 4.47583L224.393 47.3024L224.393 68.9386C224.393 69.356 224.377 69.7963 224.359 70.2487C224.278 72.4064 224.187 74.8369 225.837 76.341C227.923 78.2317 231.614 78.0355 234.182 77.7144C246.591 76.0913 254.187 64.2654 259.072 53.8842C264.101 43.1642 263.94 31.0529 258.056 20.6718C251.798 9.64855 240.066 2.97753 227.674 1.56841C226.817 1.46964 226.178 1.73471 225.755 2.19299ZM257.098 34.081C256.292 29.5817 254.693 25.4072 252.473 21.7515C254.903 25.5004 256.473 29.7259 257.098 34.081Z" fill="#F6C550"/>
<path fill-rule="evenodd" clip-rule="evenodd" d="M259.213 72.346C259.339 72.3311 259.471 72.324 259.608 72.3254C277.384 72.5394 292.237 89.1635 292.593 106.608C292.879 120.289 284.695 135.308 272 140.998C264.975 144.137 257.272 144.155 249.801 142.764C242.919 141.479 236.215 138.554 231.062 133.72C219.562 122.947 218.492 103.29 225.374 89.7164C231.819 77.0342 245.834 72.4854 259.213 72.346Z" fill="#EF8361"/>
<path fill-rule="evenodd" clip-rule="evenodd" d="M223.242 68.9183C223.235 68.8709 223.227 68.8232 223.217 68.775C223.213 68.7524 223.208 68.73 223.203 68.7077C222.087 63.2977 219.094 58.8322 213.678 57.0026C209.773 55.6827 205.244 55.8789 201.268 56.6994C198.201 57.3237 195.081 58.715 192.995 61.123C189.251 65.4395 188.341 72.9667 190.392 78.2286C193.369 85.8628 201.553 89.4124 209.345 87.8249C213.428 86.9866 217.458 84.7213 220.079 81.4571C222.99 77.8032 224.033 73.468 223.242 68.9183Z" fill="#EC6373"/>
<path fill-rule="evenodd" clip-rule="evenodd" d="M162.932 2.26071C182.028 1.67209 201.231 2.0645 220.327 2.47475C221.026 2.48925 221.583 2.72176 221.998 3.08262C222.591 3.50797 223.001 4.1972 223.001 5.1503C222.984 13.0164 222.538 21.043 220.452 28.6594C213.231 55.0581 183.276 66.7413 158.635 70.166C156.941 70.3979 155.248 69.5061 155.248 67.5797C155.248 56.3959 155.372 45.23 155.533 34.0462C155.539 33.5225 155.546 32.9987 155.553 32.475C155.652 24.6154 155.751 16.7568 156.086 8.91389C156.099 8.60865 156.1 8.26699 156.101 7.90499C156.105 6.32088 156.11 4.34726 157.155 3.33092C158.268 2.24683 160.283 2.25768 161.926 2.26652C162.283 2.26844 162.623 2.27027 162.932 2.26071Z" fill="#72CAB5"/>
<path fill-rule="evenodd" clip-rule="evenodd" d="M20.1797 69.034C21.173 67.3978 20.4662 64.7867 18.0403 64.9502C9.05399 65.5566 0.174675 67.4295 -6.79684 73.5654C-11.8784 78.0425 -15.0165 84.3568 -16.3181 90.9565C-17.9584 99.1793 -17.7444 108.33 -14.6242 116.196C-10.5055 126.595 -1.25173 133.712 9.60672 135.923C9.81774 135.966 10.0515 136.017 10.3028 136.072C12.451 136.541 15.8857 137.29 17.4341 135.709C18.355 134.773 18.4322 133.248 18.4992 131.926C18.5113 131.687 18.5231 131.454 18.5395 131.232C18.7178 128.824 18.8248 126.416 18.9318 124.008C19.7493 105.695 20.1594 87.3471 20.1797 69.034Z" fill="#EF8361"/>
<path fill-rule="evenodd" clip-rule="evenodd" d="M154.733 108.355C156.409 109.8 157.175 111.994 156.747 114.152C156.738 114.203 156.726 114.252 156.713 114.301C156.727 114.411 156.732 114.522 156.73 114.634C156.605 118.219 153.77 121.519 150.222 122.143C148.456 122.465 146.763 122.268 145.176 121.43C143.91 120.752 142.822 119.611 142.127 118.362C140.7 115.776 140.522 112.28 142.305 109.8C144.266 107.071 147.458 105.983 150.721 106.447C152.219 106.661 153.591 107.374 154.733 108.355Z" fill="#5344BA"/>
<path fill-rule="evenodd" clip-rule="evenodd" d="M357.301 92.944C368.302 93.7645 379.499 94.3531 390.536 93.8001C390.6 93.7971 390.664 93.7942 390.729 93.7912C392.968 93.6878 395.819 93.5562 395.992 90.6787C396.038 89.7996 395.871 88.8938 395.71 88.019C395.685 87.8821 395.66 87.7459 395.636 87.6107C393.817 77.2474 387.576 67.776 379.214 61.5152C372.914 56.7988 365.463 54.1082 357.776 52.751L357.776 58.0868C357.729 58.0866 357.683 58.0865 357.637 58.0865L357.637 87.6002C357.525 87.5919 357.413 87.5835 357.301 87.575L357.301 92.944Z" fill="#5344BA"/>
<path fill-rule="evenodd" clip-rule="evenodd" d="M356.117 52.4571C357.716 51.992 359.656 52.9899 359.458 55.0906C358.05 70.8941 357.551 88.4279 358.014 104.285C358.121 108.102 358.299 111.919 358.513 115.736C358.564 116.635 358.678 117.591 358.795 118.567C359.049 120.688 359.313 122.903 358.959 124.833C357.961 130.3 350.315 127.158 346.719 125.68C346.525 125.6 346.343 125.526 346.175 125.457C336.476 121.533 328.149 114.238 324.209 104.41C321.855 98.5236 320.821 91.7812 320.696 85.4669C320.589 79.5272 321.873 73.5697 325.278 68.6288C332.161 58.658 344.67 54.4727 356.117 52.4571Z" fill="#EF8361"/>
<path fill-rule="evenodd" clip-rule="evenodd" d="M167.579 98.9858C167.155 98.567 166.562 98.2899 165.801 98.2701C154.568 97.9669 143.335 97.9179 132.102 97.8688C120.869 97.8198 109.636 97.7707 98.4035 97.4675C96.4957 97.414 95.5864 99.2155 95.8182 100.856C98.0291 115.697 107.711 129.217 121.868 134.711C136.364 140.312 153.409 136.334 162.859 123.759C167.655 117.374 170.134 109.186 169.171 101.213C169.043 100.116 168.389 99.3728 167.579 98.9858Z" fill="#F6C550"/>
</svg>
