<svg width="375" height="176" viewBox="0 0 375 176" fill="none" xmlns="http://www.w3.org/2000/svg">
<path fill-rule="evenodd" clip-rule="evenodd" d="M251.288 -51.5899C252.196 -51.0589 252.958 -50.2064 253.399 -48.9862C253.724 -48.0669 254.049 -47.1507 254.375 -46.2367C258.793 -33.8138 263.063 -21.8085 262.883 -8.29249C262.689 6.76613 258.56 21.6635 247.592 32.3367C230.786 48.7174 202.915 58.5845 179.818 51.8452C166.237 47.8791 156.624 37.3993 149.302 25.7264C141.108 12.667 136.85 -2.87527 138.27 -18.2886C139.721 -33.8309 145.721 -48.5993 156.85 -59.724C166.431 -69.3331 178.657 -75.621 192.076 -77.3945C214.41 -80.3569 240.679 -72.559 251.288 -51.5899Z" fill="#EC6373"/>
<path fill-rule="evenodd" clip-rule="evenodd" d="M19.943 -12.3429C19.5672 -12.1323 19.2125 -11.8643 18.8894 -11.5358C18.7226 -11.4048 18.569 -11.243 18.4294 -11.0594C15.8512 -8.32359 13.6599 -4.86583 13.0507 -1.12053C12.4378 2.61994 12.8571 6.29592 14.6958 9.64944C18.1797 16.034 25.8571 18.9361 32.7604 17.1304C39.5023 15.3569 45.7281 9.42373 46.9216 2.39422C47.9216 -3.47445 46.3733 -10.0525 41.5668 -13.8897C38.6958 -16.1791 35.0829 -17.5335 31.3733 -17.1788C27.0187 -16.7113 23.3525 -14.8676 19.943 -12.3429Z" fill="#EC6373"/>
<path fill-rule="evenodd" clip-rule="evenodd" d="M164.846 53.5495C162.717 54.4289 161.172 56.3923 161.948 59.016C167.851 79.2339 175.916 100.355 194.432 112.479C210.819 123.217 232.883 125.184 251.141 118.412C269.98 111.447 285.077 96.4207 293.722 78.46C293.843 78.2097 293.973 77.9435 294.11 77.6627C297.363 70.9995 304.595 56.1862 293.915 53.3086C291.966 52.7728 289.796 52.9912 287.725 53.1996C287.054 53.2671 286.394 53.3336 285.754 53.3731C282.593 53.5666 279.399 53.76 276.238 53.9213C269.367 54.276 262.496 54.5662 255.593 54.7919C225.948 55.727 197.113 54.7793 167.5 52.9736C166.463 52.9037 165.576 53.127 164.846 53.5495Z" fill="#72CAB5"/>
<path fill-rule="evenodd" clip-rule="evenodd" d="M299.636 53.1274C296.408 38.5281 305.822 23.6271 319.794 19.0724C321.012 18.6753 322.076 18.785 322.938 19.2183C332.97 18.2899 343.238 20.5401 348.974 29.7504C353.138 36.4166 353.711 44.8323 352.323 52.3733C351.78 55.2992 350.844 58.3759 349.215 60.9096C345.896 66.0676 340.072 69.6571 334.278 71.3765C320.246 75.5391 302.986 68.2394 299.636 53.1274Z" fill="#5344BA"/>
<path fill-rule="evenodd" clip-rule="evenodd" d="M31.6764 40.7159C40.3817 40.7893 49.0871 40.8627 57.7924 40.8627C63.3867 40.8627 63.9542 48.6733 59.5182 50.2111V102.074C60.0285 102.087 60.5393 102.094 61.0505 102.097C67.2763 102.129 67.2763 111.803 61.0505 111.77C44.4376 111.706 28.4053 106.708 15.7924 95.6799C2.37306 83.9748 -7.23985 65.3692 -8.94953 47.5697C-9.27211 44.3452 -8.07856 41.4431 -4.49792 40.8304C-1.40946 40.2965 1.89632 40.3976 5.11857 40.4961C6.37249 40.5345 7.61377 40.5724 8.82467 40.5724C16.4419 40.5875 24.0591 40.6517 31.6764 40.7159ZM0.654091 46.6824C0.652828 46.625 0.655076 46.5624 0.657366 46.4987C0.66266 46.3513 0.66818 46.1976 0.631117 46.0864C0.615437 46.0551 0.622622 46.0085 0.630444 45.9578C0.638713 45.9042 0.647695 45.8459 0.631117 45.7962C0.766036 46.0601 0.759081 46.3623 0.654091 46.6824ZM-2.85272 50.2885C-3.1733 50.4591 -3.41034 50.475 -3.44872 50.4403C-3.48709 50.4056 -3.32679 50.3203 -2.85272 50.2885Z" fill="#EF8361"/>
<path fill-rule="evenodd" clip-rule="evenodd" d="M329.038 106.381C329.011 106.153 328.998 105.915 329 105.667C329.387 73.5184 359.452 46.658 391 46.0131C415.742 45.4971 442.904 60.2978 453.194 83.2566C458.871 95.9613 458.904 109.891 456.387 123.402C454.065 135.849 448.775 147.973 440.033 157.292C420.549 178.09 385 180.025 360.452 167.578C337.516 155.923 329.29 130.577 329.038 106.381Z" fill="#EF8361"/>
<path fill-rule="evenodd" clip-rule="evenodd" d="M256.068 -46.0261C255.227 -48.9176 257.032 -52.4273 260.831 -52.0694C289.412 -49.522 321.121 -48.6192 349.799 -49.4575C356.702 -49.651 363.605 -49.9735 370.508 -50.3604C372.135 -50.4519 373.863 -50.6586 375.628 -50.8695C379.464 -51.3281 383.469 -51.807 386.96 -51.1666C396.848 -49.3612 391.165 -35.534 388.491 -29.0295C388.348 -28.6797 388.213 -28.351 388.089 -28.0466C380.992 -10.5051 367.799 4.55356 350.025 11.6798C339.379 15.9362 327.186 17.8064 315.767 18.0322C305.025 18.2256 294.25 15.904 285.315 9.74508C267.283 -2.70166 259.714 -25.3246 256.068 -46.0261Z" fill="#EF8361"/>
<path fill-rule="evenodd" clip-rule="evenodd" d="M57.4745 -17.7506C56.7172 -16.983 56.216 -15.911 56.1803 -14.5345C55.6319 5.78016 55.5432 26.0948 55.4545 46.4094C55.3658 66.724 55.2771 87.0387 54.7287 107.353C54.6319 110.804 57.89 112.448 60.8577 112.029C87.6964 108.03 112.148 90.5212 122.084 64.9183C132.213 38.7028 125.019 7.87612 102.277 -9.21396C90.7287 -17.888 75.9222 -22.3701 61.5029 -20.6288C59.5194 -20.3981 58.1744 -19.2151 57.4745 -17.7506Z" fill="#F6C550"/>
</svg>
