<svg width="26" height="25" viewBox="0 0 26 25" fill="none" xmlns="http://www.w3.org/2000/svg">
<path d="M12.1359 2.47047C12.5216 1.80821 13.4784 1.80821 13.8641 2.47048L16.5415 7.06734C16.9655 7.79515 17.6758 8.31123 18.499 8.48948L23.6982 9.61536C24.4473 9.77757 24.7429 10.6875 24.2323 11.259L20.6877 15.2259C20.1266 15.854 19.8552 16.689 19.9401 17.527L20.476 22.8197C20.5532 23.5822 19.7791 24.1445 19.0778 23.8355L14.2097 21.6903C13.439 21.3507 12.561 21.3507 11.7903 21.6903L6.9222 23.8355C6.22086 24.1445 5.44683 23.5822 5.52403 22.8197L6.05992 17.527C6.14476 16.689 5.87344 15.854 5.31225 15.2259L1.76774 11.259C1.25709 10.6875 1.55274 9.77757 2.3018 9.61536L7.50105 8.48948C8.32422 8.31123 9.03455 7.79514 9.45846 7.06734L12.1359 2.47047Z" fill="white" stroke="white" stroke-width="2"/>
</svg>
