<svg width="40" height="30" viewBox="0 0 40 30" fill="none" xmlns="http://www.w3.org/2000/svg">
<path d="M6.26957 14.0103C6.25957 11.3003 5.94957 8.63035 5.86957 5.92035C5.84957 5.41035 5.83957 4.90035 5.86957 4.39035C5.89957 3.67035 5.81957 3.49035 6.58957 3.32035C7.23957 3.18035 8.03957 3.29035 8.70957 3.29035C9.61957 3.28035 10.5196 3.28035 11.4296 3.26035C18.3696 3.17035 25.2996 2.95035 32.2396 2.93035C32.7796 2.93035 33.3896 2.84035 33.6796 3.42035C33.8496 3.76035 33.7596 4.34035 33.7496 4.71035C33.7296 5.70035 33.6996 6.69035 33.6796 7.68035C33.6296 9.72035 33.5896 11.7603 33.5396 13.8003C33.4996 15.2503 35.7496 15.2503 35.7896 13.8003C35.8396 11.6903 35.8896 9.58035 35.9296 7.47035C35.9696 5.79035 36.4396 3.43035 35.4496 1.95035C34.3996 0.380348 32.3296 0.680346 30.6996 0.690346C28.7396 0.710346 26.7696 0.740348 24.8096 0.770348C20.5496 0.850348 16.2896 0.940347 12.0296 1.00035C10.1796 1.02035 8.13957 0.800349 6.30957 1.08035C4.74957 1.32035 3.81957 2.19035 3.65957 3.73035C3.31957 7.11035 3.99957 10.6103 4.00957 14.0003C4.01957 15.4603 6.26957 15.4603 6.26957 14.0103Z" fill="#C0C0C0"/>
<path d="M3.57005 13.3505C1.41005 13.9105 0.830048 16.0505 0.900048 18.0505C0.940048 19.2605 1.03004 20.4705 1.10004 21.6805C1.16004 22.7305 1.11005 23.9405 1.89005 24.7605C3.09005 26.0105 5.24005 25.5905 6.78005 25.5505C8.76005 25.4905 10.73 25.4605 12.71 25.4305C17.09 25.3605 21.47 25.3405 25.86 25.3205C27.9 25.3105 29.93 25.3105 31.97 25.3105C33.59 25.3105 35.69 25.6605 37.21 25.0105C39.01 24.2405 39.74 22.1405 39.73 20.3305C39.7201 19.1005 39.68 17.8705 39.64 16.6305C39.61 15.5405 39.5 14.6705 38.65 13.9305C37.16 12.6405 34.66 12.9405 32.81 12.9005C27.26 12.7805 21.71 12.8005 16.17 12.8305C13.4 12.8505 10.63 12.8705 7.86005 12.9205C7.03005 12.9305 6.19005 12.9505 5.36005 12.9805C4.95005 13.0005 4.30005 12.9305 3.95005 13.1905C3.45005 13.5705 3.24005 14.1405 3.55005 14.7305C3.79005 15.1805 4.24005 15.2805 4.70005 15.3105C6.15005 15.4105 6.14005 13.1605 4.70005 13.0605C4.45005 13.0405 4.84005 13.0805 4.82005 13.0805C5.04005 13.2505 5.27005 13.4205 5.49005 13.6005C5.36005 14.1105 5.22005 14.6305 5.09005 15.1405C4.94005 15.2505 4.43004 15.2305 4.76004 15.2705C4.92004 15.2905 5.11005 15.2505 5.27005 15.2505C5.84005 15.2305 6.41004 15.2205 6.99004 15.2005C8.87004 15.1605 10.75 15.1405 12.63 15.1205C17.58 15.0705 22.54 15.0505 27.49 15.0905C29.6 15.1005 31.71 15.1305 33.82 15.1905C34.54 15.2105 35.25 15.2305 35.97 15.2805C36.2 15.2905 36.46 15.2805 36.68 15.3505C37.77 15.7205 37.42 17.3505 37.44 18.2705C37.48 19.8305 37.94 22.9205 35.7 23.0805C34.2 23.1905 32.65 23.0805 31.14 23.0805C27.51 23.0805 23.88 23.0905 20.25 23.1205C16.2 23.1505 12.15 23.1905 8.11005 23.2905C7.26005 23.3105 6.41005 23.3305 5.55005 23.3605C4.65005 23.3905 3.61005 23.6905 3.41005 22.6205C3.18005 21.3705 3.26004 19.9805 3.19004 18.7105C3.13004 17.6805 2.87005 15.8905 4.18005 15.5405C5.57005 15.1505 4.98005 12.9805 3.57005 13.3505Z" fill="#C0C0C0"/>
<path d="M2.66031 25.3406C2.69031 25.9206 2.75031 26.5006 2.78031 27.0806C2.80031 27.5806 2.84031 28.0806 3.09031 28.5406C3.36031 29.0306 3.85032 29.3706 4.38032 29.5106C4.83032 29.6306 5.32031 29.6306 5.78031 29.6606C6.23031 29.6806 6.69031 29.6906 7.14031 29.6906C7.58031 29.6906 8.03032 29.6906 8.47032 29.6506C8.85032 29.6206 9.23032 29.5206 9.51032 29.2306C9.79032 28.9406 9.92032 28.5706 9.94032 28.1706C9.96032 27.6606 9.89032 27.1406 9.86031 26.6306C9.83031 26.1006 9.80031 25.5706 9.77031 25.0406C9.74031 24.4506 9.28032 23.8906 8.65032 23.9206C8.07032 23.9506 7.49031 24.4206 7.53031 25.0406C7.59031 26.0306 7.67031 27.0306 7.70031 28.0206C7.70031 28.0706 7.70031 28.1206 7.70031 28.1706C7.82031 27.6506 8.08032 27.3906 8.48032 27.3906C8.48032 27.3806 8.15032 27.4106 8.12032 27.4106C7.89032 27.4206 7.67032 27.4206 7.44032 27.4306C6.95032 27.4406 6.47031 27.4306 5.98031 27.4106C5.75031 27.4006 5.53031 27.3906 5.30031 27.3706C5.28031 27.3706 4.98031 27.3306 4.98031 27.3406C5.15031 27.3706 5.18032 27.3706 5.06032 27.3406C5.01032 27.3306 4.96031 27.3206 4.92031 27.3006C4.80031 27.2606 4.83032 27.2706 4.99032 27.3306C4.89032 27.2706 4.91032 27.2906 5.04031 27.3806C4.88031 27.2406 5.14031 27.5806 5.04031 27.3806C5.24031 27.7706 5.00031 27.3006 5.04031 27.3006C5.06031 27.4806 5.07031 27.5006 5.05031 27.3806C5.05031 27.3306 5.04031 27.2806 5.04031 27.2306C5.00031 26.5906 4.94031 25.9606 4.91031 25.3306C4.88031 24.7406 4.41032 24.1806 3.79032 24.2106C3.20032 24.2406 2.63031 24.7106 2.66031 25.3406Z" fill="#C0C0C0"/>
<path d="M29.6603 25.3406C29.6903 25.9206 29.7503 26.5006 29.7803 27.0806C29.8003 27.5806 29.8403 28.0806 30.0903 28.5406C30.3603 29.0306 30.8503 29.3706 31.3803 29.5106C31.8303 29.6306 32.3203 29.6306 32.7803 29.6606C33.2303 29.6806 33.6903 29.6906 34.1403 29.6906C34.5803 29.6906 35.0303 29.6906 35.4703 29.6506C35.8503 29.6206 36.2303 29.5206 36.5103 29.2306C36.7903 28.9406 36.9203 28.5706 36.9403 28.1706C36.9603 27.6606 36.8903 27.1406 36.8603 26.6306C36.8303 26.1006 36.8003 25.5706 36.7703 25.0406C36.7403 24.4506 36.2803 23.8906 35.6503 23.9206C35.0703 23.9506 34.4903 24.4206 34.5303 25.0406C34.5903 26.0306 34.6703 27.0306 34.7003 28.0206C34.7003 28.0706 34.7003 28.1206 34.7003 28.1706C34.8203 27.6506 35.0803 27.3906 35.4803 27.3906C35.4803 27.3806 35.1503 27.4106 35.1203 27.4106C34.8903 27.4206 34.6703 27.4206 34.4403 27.4306C33.9503 27.4406 33.4703 27.4306 32.9803 27.4106C32.7503 27.4006 32.5303 27.3906 32.3003 27.3706C32.2803 27.3706 31.9803 27.3306 31.9803 27.3406C32.1503 27.3706 32.1803 27.3706 32.0603 27.3406C32.0103 27.3306 31.9603 27.3206 31.9203 27.3006C31.8003 27.2606 31.8303 27.2706 31.9903 27.3306C31.8903 27.2706 31.9103 27.2906 32.0403 27.3806C31.8803 27.2406 32.1403 27.5806 32.0403 27.3806C32.2403 27.7706 32.0003 27.3006 32.0403 27.3006C32.0603 27.4806 32.0703 27.5006 32.0503 27.3806C32.0503 27.3306 32.0403 27.2806 32.0403 27.2306C32.0003 26.5906 31.9403 25.9606 31.9103 25.3306C31.8803 24.7406 31.4103 24.1806 30.7903 24.2106C30.2003 24.2406 29.6303 24.7106 29.6603 25.3406Z" fill="#C0C0C0"/>
<path d="M10.0901 13.2604C9.94012 12.0804 9.66012 10.4704 10.5901 9.62041C11.4901 8.79041 12.8701 9.07041 14.0801 8.83041C14.2601 8.79041 13.9901 8.81041 13.9801 8.84041C14.0001 8.80041 14.4501 8.82041 14.4901 8.82041C14.9301 8.81041 15.3801 8.79041 15.8201 8.84041C16.4001 8.91041 16.9901 9.10041 17.3401 9.56041C17.6401 9.95041 17.6201 10.3104 17.5801 10.9104C17.5301 11.6704 17.4101 12.4304 17.4001 13.1904C17.3901 14.6404 19.6401 14.6404 19.6501 13.1904C19.6601 11.8804 20.1001 10.4804 19.6501 9.20041C19.1101 7.64041 17.6501 6.82041 16.0901 6.62041C15.3001 6.52041 14.3901 6.47041 13.6101 6.63041C13.5601 6.64041 13.4501 6.65041 13.6201 6.64041C13.8501 6.63041 13.6001 6.63041 13.5701 6.63041C13.4801 6.63041 13.3801 6.64041 13.2901 6.64041C12.9601 6.66041 12.6301 6.68041 12.3001 6.72041C10.8101 6.89041 9.42013 7.36041 8.51013 8.62041C7.55013 9.95041 7.65012 11.7204 7.85012 13.2604C7.93012 13.8604 8.31013 14.3804 8.97013 14.3804C9.51013 14.3804 10.1701 13.8704 10.0901 13.2604Z" fill="#C0C0C0"/>
<path d="M22.0901 13.2604C21.9401 12.0804 21.6601 10.4704 22.5901 9.62041C23.4901 8.79041 24.8701 9.07041 26.0801 8.83041C26.2601 8.79041 25.9901 8.81041 25.9801 8.84041C26.0001 8.80041 26.4501 8.82041 26.4901 8.82041C26.9301 8.81041 27.3801 8.79041 27.8201 8.84041C28.4001 8.91041 28.9901 9.10041 29.3401 9.56041C29.6401 9.95041 29.6201 10.3104 29.5801 10.9104C29.5301 11.6704 29.4101 12.4304 29.4001 13.1904C29.3901 14.6404 31.6401 14.6404 31.6501 13.1904C31.6601 11.8804 32.1001 10.4804 31.6501 9.20041C31.1101 7.64041 29.6501 6.82041 28.0901 6.62041C27.3001 6.52041 26.3901 6.47041 25.6101 6.63041C25.5601 6.64041 25.4501 6.65041 25.6201 6.64041C25.8501 6.63041 25.6001 6.63041 25.5701 6.63041C25.4801 6.63041 25.3801 6.64041 25.2901 6.64041C24.9601 6.66041 24.6301 6.68041 24.3001 6.72041C22.8101 6.89041 21.4201 7.36041 20.5101 8.62041C19.5501 9.95041 19.6501 11.7204 19.8501 13.2604C19.9301 13.8604 20.3101 14.3804 20.9701 14.3804C21.5101 14.3804 22.1701 13.8704 22.0901 13.2604Z" fill="#C0C0C0"/>
</svg>
