<svg width="113" height="27" viewBox="0 0 113 27" fill="none" xmlns="http://www.w3.org/2000/svg">
<path fill-rule="evenodd" clip-rule="evenodd" d="M56.1484 26.5462C54.7643 26.5462 53.4886 25.8231 52.6831 24.6975C52.5107 24.4567 52.3314 24.2116 52.1452 23.9621C51.4817 23.0182 50.7471 22.0861 49.9415 21.1657C49.1595 20.2218 48.342 19.3251 47.4889 18.4755C46.6359 17.6024 45.7828 16.8354 44.9298 16.1747V26.5462H41.385C40.2804 26.5462 39.385 25.6507 39.385 24.5462V4.01563C39.385 2.91106 40.2804 2.01562 41.385 2.01562H44.9298V11.2898C46.3752 9.7795 47.8207 8.21021 49.2661 6.58192C50.2832 5.43838 51.2491 4.35703 52.1639 3.33789C52.9204 2.4952 54 2.01562 55.1324 2.01562H59.9292C58.2468 3.99789 56.5526 5.90936 54.8465 7.75004C53.1641 9.59071 51.3869 11.4432 49.5149 13.3075C51.4817 14.9358 53.3773 16.8708 55.2019 19.1127C57.0502 21.3545 58.8155 23.8324 60.4979 26.5462H56.1484ZM80.2103 26.5462C78.6227 23.738 76.9047 20.9651 75.0564 18.2277C73.2082 15.4903 71.2414 12.9063 69.1562 10.4757V26.5462H65.6824C64.5779 26.5462 63.6824 25.6507 63.6824 24.5462V4.01563C63.6824 2.91106 64.5779 2.01562 65.6824 2.01562H68.1965C68.9785 2.79437 69.8433 3.75011 70.7912 4.88283C71.739 6.01556 72.6987 7.23087 73.6702 8.52879C74.6655 9.8031 75.6488 11.1364 76.6204 12.5287C77.5919 13.8974 78.5042 15.2189 79.3572 16.4932V2.01562H82.8665C83.9711 2.01562 84.8665 2.91106 84.8665 4.01562V24.5462C84.8665 25.6507 83.9711 26.5462 82.8665 26.5462H80.2103ZM106.152 23.9267C106.484 24.8235 106.78 25.6966 107.041 26.5462H110.159C111.536 26.5462 112.501 25.1863 112.039 23.8886C111.455 22.2457 110.89 20.6892 110.346 19.2189C109.517 16.977 108.7 14.865 107.894 12.8827C107.112 10.9004 106.33 9.02435 105.548 7.25447C104.941 5.8614 104.326 4.49681 103.704 3.16069C103.378 2.4602 102.674 2.01562 101.901 2.01562H99.1198C98.3554 2.01562 97.6566 2.45079 97.328 3.14097C96.6887 4.48338 96.0639 5.85455 95.4535 7.25447C94.6953 9.02435 93.9133 10.9004 93.1077 12.8827C92.3257 14.865 91.52 16.977 90.6907 19.2189C90.1468 20.6892 89.5825 22.2457 88.9978 23.8886C88.5359 25.1863 89.501 26.5462 90.8785 26.5462H93.8185C94.0792 25.6966 94.3635 24.8235 94.6716 23.9267C95.0033 23.03 95.3232 22.1333 95.6313 21.2365H105.228L106.152 23.9267ZM99.861 9.02435C100.098 8.41079 100.276 7.92703 100.394 7.57305C100.536 7.92703 100.726 8.41079 100.963 9.02435C101.2 9.63791 101.472 10.3459 101.78 11.1482C102.112 11.9506 102.456 12.8355 102.811 13.803C103.167 14.7706 103.534 15.7853 103.913 16.8472H96.9108C97.29 15.7853 97.6572 14.7706 98.0127 13.803C98.3918 12.8355 98.7354 11.9506 99.0435 11.1482C99.3515 10.3459 99.624 9.63791 99.861 9.02435ZM20.7832 24.5462C20.7832 25.6507 21.6786 26.5462 22.7832 26.5462H36.7046L35.4117 21.9296H26.2808V16.0443H33.857L32.6477 11.5335H26.2808V6.74068L31.3016 6.6702L30.0564 2.1241H22.7832C21.6786 2.1241 20.7832 3.01953 20.7832 4.1241V24.5462Z" fill="#6858D8"/>
<path d="M15.6216 26.0148L16.6216 3.01481L4.42513 16.0884C2.46254 18.1922 3.29618 21.6178 6.00597 22.5845L15.6216 26.0148Z" fill="#F0D058"/>
</svg>
