<svg width="26" height="25" viewBox="0 0 26 25" fill="none" xmlns="http://www.w3.org/2000/svg">
<path opacity="0.5" d="M25 12.1933C25 18.3751 19.9886 23.3865 13.8067 23.3865H13.793H13.7793H13.7655H13.7517H13.7379H13.724H13.7102H13.6963H13.6824H13.6684H13.6545H13.6405H13.6265H13.6125H13.5984H13.5843H13.5702H13.5561H13.542H13.5278H13.5136H13.4994H13.4852H13.4709H13.4566H13.4423H13.428H13.4137H13.3993H13.3849H13.3705H13.356H13.3416H13.3271H13.3126H13.2981H13.2835H13.269H13.2544H13.2398H13.2251H13.2105H13.1958H13.1811H13.1664H13.1517H13.1369H13.1221H13.1073H13.0925H13.0777H13.0628H13.0479H13.033H13.0181H13.0031H12.9882H12.9732H12.9582H12.9431H12.9281H12.913H12.8979H12.8828H12.8677H12.8525H12.8374H12.8222H12.807H12.7917H12.7765H12.7612H12.7459H12.7306H12.7153H12.7H12.6846H12.6692H12.6538H12.6384H12.6229H12.6075H12.592H12.5765H12.561H12.5454H12.5299H12.5143H12.4987H12.4831H12.4675H12.4518H12.4361H12.4205H12.4047H12.389H12.3733H12.3575H12.3418H12.326H12.3101H12.2943H12.2785H12.2626H12.2467H12.2308H12.2149H12.199H12.183H12.167H12.151H12.135H12.119H12.103H12.0869H12.0708H12.0548H12.0386H12.0225H12.0064H11.9902H11.974H11.9579H11.9416H11.9254H11.9092H11.8929H11.8766H11.8604H11.8441H11.8277H11.8114H11.795H11.7787H11.7623H11.7459H11.7295H11.713H11.6966H11.6801H11.6636H11.6471H11.6306H11.6141H11.5976H11.581H11.5644H11.5479H11.5312H11.5146H11.498H11.4814H11.4647H11.448H11.4313H11.4146H11.3979H11.3812H11.3644H11.3477H11.3309H11.3141H11.2973H11.2805H11.2636H11.2468H11.2299H11.2131H11.1962H11.1793H11.1623H11.1454H11.1285H11.1115H11.0945H11.0776H11.0606H11.0436H11.0265H11.0095H10.9924H10.9754H10.9583H10.9412H10.9241H10.907H10.8899H10.8727H10.8556H10.8384H10.8212H10.8041H10.7869H10.7696H10.7524H10.7352H10.7179H10.7007H10.6834H10.6661H10.6488H10.6315H10.6142H10.5968H10.5795H10.5621H10.5448H10.5274H10.51H10.4926H10.4752H10.4578H10.4403H10.4229H10.4054H10.3879H10.3705H10.353H10.3355H10.318H10.3004H10.2829H10.2654H10.2478H10.2302H10.2127H10.1951H10.1775H10.1599H10.1423H10.1246H10.107H10.0894H10.0717H10.054H10.0364H10.0187H10.001H9.98328H9.96556H9.94784H9.93011H9.91237H9.89462H9.87686H9.85909H9.84131H9.82352H9.80572H9.78792H9.7701H9.75228H9.73445H9.71661H9.69876H9.6809H9.66304H9.64516H9.62728H9.60939H9.59149H9.57358H9.55567H9.53774H9.51981H9.50187H9.48392H9.46597H9.44801H9.43004H9.41206H9.39407H9.37608H9.35808H9.34007H9.32205H9.30403H9.286H9.26796H9.24992H9.23187H9.21381H9.19575H9.17767H9.1596H9.14151H9.12342H9.10532H9.08721H9.0691H9.05098H9.03286H9.01473H8.99659H8.97845H8.9603H8.94214H8.92398H8.90582H8.88764H8.86946H8.85128H8.83309H8.81489H8.79669H8.77848H8.76027H8.74205H8.72383H8.7056H8.68737H8.66913H8.65089H8.63264H8.61438H8.59612H8.57786H8.55959H8.54132H8.52304H8.50476H8.48647H8.46818H8.44988H8.43158H8.41328H8.39497H8.37666H8.35834H8.34002H8.32169H8.30336H8.28503H8.26669H8.24835H8.23001H8.21166H8.19331H8.17495H8.1566H8.13823H8.11987H8.1015H8.08313H8.06475H8.04638H8.02799H8.00961H7.99122H7.97283H7.95444H7.93605H7.91765H7.89925H7.88084H7.86244H7.84403H7.82562H7.80721H7.78879H7.77038H7.75196H7.73354H7.71511H7.69669H7.67826H7.65983H7.6414H7.62297H7.60453H7.5861H7.56766H7.54922H7.53078H7.51234H7.4939H7.47546H7.45701H7.43856H7.42012H7.40167H7.38322H7.36477H7.34632H7.32787H7.30942H7.29096H7.27251H7.25406H7.2356H7.21715H7.19869H7.18024H7.16178H7.14333H7.12487H7.10642H7.08796H7.06951H7.05105H7.0326H7.01414H6.99569H6.97723H6.95878H6.94033H6.92188H6.90342H6.88497H6.86652H6.84807H6.82963H6.81118H6.79273H6.77429H6.75584H6.7374H6.71896H6.70052H6.68208H6.66364H6.64521H6.62677H6.60834H6.58991H6.57148H6.55305H6.53462H6.5162H6.49778H6.47936H6.46094H6.44253H6.42411H6.4057H6.38729H6.36889H6.35048H6.33208H6.31368H6.29529H6.27689H6.2585H6.24012H6.22173H6.20335H6.18497H6.1666H6.14822H6.12985H6.11149H6.09313H6.07477H6.05641H6.03806H6.01971H6.00136H5.98302H5.96468H5.94635H5.92802H5.90969H5.89137H5.87305H5.85474H5.83643H5.81812H5.79982H5.78153H5.76323H5.74494H5.72666H5.70838H5.69011H5.67184H5.65357H5.63531H5.61706H5.59881H5.58056H5.56232H5.54409H5.52586H5.50763H5.48941H5.4712H5.45299H5.43479H5.41659H5.3984H5.38021H5.36203H5.34386H5.32569H5.30753H5.28937H5.27122H5.25307H5.23493H5.2168H5.19868H5.18056H5.16244H5.14434H5.12624H5.10814H5.09005H5.07197H5.0539H5.03583H5.01777H4.99972C2.7533 23.3865 1.12623 21.5963 1.46789 19.5826C1.61217 18.7323 1.76867 17.9309 1.92126 17.1496C2.02052 16.6413 2.11812 16.1416 2.20962 15.6423C2.43396 14.4183 2.61346 13.236 2.61346 12.1933C2.61346 6.0114 7.62485 1 13.8067 1C19.9886 1 25 6.0114 25 12.1933Z" stroke="#C0C0C0" stroke-width="2"/>
</svg>
