<svg width="32" height="23" viewBox="0 0 32 23" fill="none" xmlns="http://www.w3.org/2000/svg">
<path d="M7.99067 7.12006C6.73067 9.01006 5.35067 10.8301 4.12067 12.7501C2.56067 15.1801 1.28067 17.7601 0.140671 20.4101C-0.0993289 20.9701 -0.0293289 21.6201 0.540671 21.9501C1.01067 22.2301 1.84067 22.1101 2.08067 21.5501C3.22067 18.9001 4.50067 16.3201 6.06067 13.8901C7.29067 11.9801 8.67067 10.1601 9.93067 8.26006C10.7407 7.05006 8.79067 5.92006 7.99067 7.12006Z" fill="#C0C0C0"/>
<path d="M1.41023 22.0601C6.52023 21.2101 11.6002 20.2201 16.6902 19.2401C18.1102 18.9701 17.5102 16.8001 16.0902 17.0701C11.0002 18.0501 5.92023 19.0401 0.810231 19.8901C-0.609769 20.1301 -0.00976884 22.3001 1.41023 22.0601Z" fill="#C0C0C0"/>
<path d="M9.00985 8.46007C12.8599 9.96007 15.4499 14.0201 15.3799 18.1201C15.3599 19.5701 17.6099 19.5701 17.6299 18.1201C17.7199 12.9501 14.3799 8.16007 9.59985 6.30007C9.03985 6.07007 8.37985 6.54007 8.22985 7.08007C8.04985 7.72007 8.43985 8.24007 9.00985 8.46007Z" fill="#C0C0C0"/>
<path d="M7.44066 12.0102C7.69066 12.1302 7.93066 12.2702 8.16066 12.4302C8.22066 12.4702 8.29066 12.5202 8.35066 12.5702C8.27066 12.5102 8.26066 12.5002 8.35066 12.5702C8.48066 12.6702 8.60066 12.7802 8.72066 12.8902C8.96066 13.1102 9.18066 13.3502 9.39066 13.6002C9.45066 13.6702 9.50066 13.7402 9.56066 13.8102C9.49066 13.7202 9.54066 13.7802 9.58066 13.8402C9.69066 13.9902 9.79066 14.1402 9.89066 14.2902C10.0807 14.5702 10.2507 14.8602 10.4007 15.1502C10.4907 15.3202 10.5707 15.4902 10.6507 15.6602C10.6807 15.7302 10.7107 15.8002 10.7407 15.8702C10.6707 15.7202 10.7707 15.9402 10.7807 15.9702C10.9107 16.3102 11.0207 16.6502 11.1107 17.0002C11.1607 17.1802 11.2007 17.3702 11.2407 17.5502C11.2507 17.6202 11.2707 17.7002 11.2807 17.7702C11.3407 18.1302 11.2607 17.5502 11.3007 17.9202C11.3707 18.5002 11.7707 19.0702 12.4207 19.0402C12.9707 19.0202 13.6107 18.5402 13.5407 17.9202C13.3507 16.2202 12.7707 14.5802 11.8207 13.1502C11.0007 11.9202 9.92066 10.7302 8.56066 10.0802C8.03066 9.83025 7.32066 9.92025 7.02066 10.4802C6.78066 10.9702 6.88066 11.7402 7.44066 12.0102Z" fill="#C0C0C0"/>
<path d="M11.0406 3.25988C11.0406 3.32988 11.0406 3.38988 11.0406 3.45988C11.0306 3.60988 11.0706 3.75988 11.1406 3.88988C11.1906 4.02988 11.2606 4.14988 11.3706 4.24988C11.4706 4.35988 11.5906 4.43988 11.7306 4.47988C11.8606 4.54988 12.0106 4.57988 12.1606 4.57988C12.2606 4.56988 12.3606 4.54988 12.4606 4.53988C12.6506 4.48988 12.8206 4.38988 12.9606 4.24988C13.0206 4.16988 13.0806 4.09988 13.1406 4.01988C13.2406 3.83988 13.2906 3.65988 13.2906 3.44988C13.2906 3.37988 13.2906 3.31988 13.2906 3.24988C13.3006 3.09988 13.2606 2.94988 13.1906 2.81988C13.1406 2.67988 13.0706 2.55988 12.9606 2.45988C12.8606 2.34988 12.7406 2.26988 12.6006 2.22988C12.4706 2.15988 12.3206 2.12988 12.1706 2.12988C12.0706 2.13988 11.9706 2.15988 11.8706 2.16988C11.6806 2.21988 11.5106 2.31988 11.3706 2.45988C11.3106 2.53988 11.2506 2.60988 11.1906 2.68988C11.0906 2.86988 11.0406 3.05988 11.0406 3.25988Z" fill="#C0C0C0"/>
<path d="M16.3903 7.87018C17.4403 6.35018 18.1603 4.57018 18.4603 2.75018C18.5103 2.44018 18.5103 2.16018 18.3503 1.88018C18.2103 1.65018 17.9503 1.42018 17.6803 1.36018C17.1403 1.24018 16.4003 1.52018 16.3003 2.15018C16.1603 3.00018 15.9303 3.84018 15.6103 4.65018C15.5903 4.69018 15.5803 4.73018 15.5603 4.77018C15.6203 4.63018 15.6203 4.62018 15.5703 4.74018C15.5203 4.84018 15.4803 4.95018 15.4303 5.05018C15.3403 5.24018 15.2403 5.43018 15.1403 5.62018C14.9303 6.00018 14.6903 6.37018 14.4503 6.73018C14.1203 7.22018 14.3403 8.00018 14.8503 8.27018C15.4203 8.58018 16.0303 8.39018 16.3903 7.87018Z" fill="#C0C0C0"/>
<path d="M22.4098 2.77002C23.8598 2.77002 23.8598 0.52002 22.4098 0.52002C20.9598 0.52002 20.9598 2.77002 22.4098 2.77002Z" fill="#C0C0C0"/>
<path d="M19.1806 15.5601C19.7806 15.6801 20.3806 15.8201 20.9606 16.0101C21.1006 16.0601 21.2506 16.1101 21.3906 16.1601C21.4506 16.1801 21.5206 16.2001 21.5806 16.2401C21.3306 16.1001 21.5506 16.2301 21.6106 16.2501C21.8606 16.3601 22.1106 16.4901 22.3506 16.6301C22.5706 16.7601 22.8406 16.9001 23.0306 17.0801C22.9406 16.9901 22.9006 16.9701 23.0106 17.0701C23.0606 17.1101 23.1106 17.1501 23.1606 17.2001C23.2706 17.2901 23.3706 17.3901 23.4706 17.4901C23.5706 17.5901 23.6706 17.7001 23.7606 17.8101C23.7906 17.8501 23.8306 17.8901 23.8606 17.9301C24.0406 18.1401 23.7206 17.7301 23.8806 17.9601C24.0606 18.2101 24.2306 18.4601 24.3806 18.7301C24.6706 19.2401 25.4106 19.4601 25.9206 19.1301C26.4406 18.8001 26.6306 18.1401 26.3206 17.5901C25.6506 16.4101 24.7006 15.4201 23.5506 14.7201C22.4006 14.0301 21.1006 13.6301 19.7906 13.3701C19.2106 13.2601 18.5506 13.5301 18.4106 14.1601C18.2706 14.7301 18.5606 15.4401 19.1806 15.5601Z" fill="#C0C0C0"/>
<path d="M25.2203 12.6001C26.6703 12.6001 26.6703 10.3501 25.2203 10.3501C23.7703 10.3501 23.7703 12.6001 25.2203 12.6001Z" fill="#C0C0C0"/>
<path d="M19.22 10.7201C19.2 10.3801 19.38 10.0501 19.76 10.0501C20.06 10.0501 20.38 10.1901 20.68 10.2401C21.12 10.3101 21.5 10.3101 21.94 10.2001C22.4 10.0801 22.79 9.60009 22.77 9.12009C22.76 8.79009 22.71 8.42009 22.79 8.10009C22.82 7.98009 23.03 7.73009 22.88 7.77009C23.04 7.72009 23.31 7.89009 23.47 7.95009C23.75 8.06009 24.01 8.15009 24.32 8.18009C25.02 8.25009 25.7 7.97009 26.11 7.38009C26.41 6.94009 26.65 6.19009 26.58 5.66009C26.55 5.43009 26.76 5.44009 26.39 5.51009C25.96 5.59009 26.33 5.60009 26.48 5.66009C26.61 5.70009 26.73 5.76009 26.85 5.80009C27.5 5.98009 28.18 5.85009 28.65 5.35009C28.87 5.11009 29.01 4.80009 29.1 4.49009C29.14 4.37009 29.15 3.98009 29.21 3.91009C29.3 3.81009 29.82 3.86009 30 3.88009C30.6 3.96009 31.21 3.73009 31.38 3.09009C31.52 2.56009 31.2 1.79009 30.59 1.71009C29.14 1.51009 27.53 1.67009 27.05 3.31009C27.02 3.43009 26.96 3.62009 26.96 3.75009C26.95 3.80009 26.94 3.84009 26.93 3.89009C27.1 3.76009 27.29 3.68009 27.51 3.65009C27.41 3.52009 26.83 3.41009 26.68 3.38009C25.84 3.21009 25.07 3.60009 24.65 4.34009C24.47 4.66009 24.39 5.01009 24.35 5.36009C24.35 5.37009 24.25 6.14009 24.24 6.13009C24.04 6.02009 24.59 5.93009 24.61 5.97009C24.61 5.96009 24.16 5.82009 24.14 5.82009C23.78 5.68009 23.43 5.55009 23.04 5.53009C22.23 5.49009 21.5 5.92009 21.04 6.57009C20.51 7.32009 20.47 8.24009 20.51 9.12009C20.79 8.76009 21.06 8.40009 21.34 8.04009C20.92 8.15009 20.35 7.86009 19.91 7.82009C19.39 7.78009 18.87 7.90009 18.42 8.15009C17.5 8.66009 16.91 9.68009 16.97 10.7301C17.05 12.1601 19.3 12.1701 19.22 10.7201Z" fill="#C0C0C0"/>
</svg>
