<svg 
          width="18" 
          height="14" fill="none" 
          xmlns="http://www.w3.org/2000/svg">
          <path d="M 1.8 0 C 0.8072999596595765 0 0 0.7848749607801437 0 1.75 L 0 12.25 C 0 13.215125039219856 0.8072999596595765 14 1.8 14 L 16.2 14 C 17.192700040340423 14 18 13.215125039219856 18 12.25 L 18 1.75 C 18 0.7848749607801437 17.192700040340423 0 16.2 0 L 1.8 0 Z M 1.8 1.75 L 16.2 1.75 L 16.2 1.755126953125 L 9 6.125 L 1.8 1.75341796875 L 1.8 1.75 Z M 1.8 3.50341796875 L 9 7.875 L 16.2 3.505126953125 L 16.201757812500002 12.25 L 1.8 12.25 L 1.8 3.50341796875 Z" fill="rgb(255,255,255)"/>
        </svg>