<svg width="24" height="18" viewBox="0 0 24 18" fill="none" xmlns="http://www.w3.org/2000/svg">
<path d="M4.20092 2.26007C7.44092 2.26007 10.6909 2.28008 13.9309 2.40007C15.6109 2.46007 17.3109 2.53007 18.9809 2.73007C19.4309 2.78007 19.8709 2.86007 20.3009 2.96007C20.3809 2.98007 20.4809 3.04007 20.5709 3.04007C20.3609 3.03007 20.4509 2.96007 20.5509 3.04007C20.1609 2.70007 20.6809 3.33008 20.7109 3.39007C20.9009 3.74007 21.0009 4.17007 21.0509 4.56007C21.2309 5.97007 21.0509 7.48007 21.0209 8.90007C20.9909 10.2801 21.0309 11.6601 21.0009 13.0401C20.9909 13.4501 21.0609 14.1301 20.8609 14.5001C20.7009 14.7901 20.8609 14.7101 20.3709 14.7001C20.0009 14.6901 19.6309 14.7301 19.2609 14.7401C18.0609 14.7901 16.8609 14.8501 15.6609 14.8901C13.9109 14.9601 12.1609 14.9901 10.4109 15.0001C8.39092 15.0101 6.23092 15.2301 4.24092 14.7801C2.91092 14.4801 2.37092 13.8901 2.33092 12.5201C2.29092 11.2301 2.23092 9.94007 2.25092 8.65007C2.28092 7.16008 2.37092 5.65007 2.70092 4.19007C2.81092 3.71007 2.94092 2.76007 3.32092 2.41007C3.60092 2.16007 3.86092 2.24007 4.20092 2.26007C5.65092 2.33007 5.64092 0.080075 4.20092 0.010075C1.28092 -0.139925 0.600923 2.71007 0.270923 5.09008C0.0609234 6.65007 -0.00907666 8.23008 0.000923343 9.80008C0.0109233 11.0901 -0.0390767 12.4801 0.190923 13.7501C0.680923 16.4501 3.46092 17.1101 5.81092 17.2401C8.25092 17.3701 10.7409 17.2701 13.1809 17.2201C14.2609 17.2001 15.3509 17.1601 16.4309 17.1101C17.9709 17.0501 19.6509 17.1601 21.1709 16.8601C24.0809 16.3001 23.2209 11.7201 23.2609 9.62008C23.2909 7.90007 23.4809 6.12007 23.2809 4.41007C23.1509 3.25007 22.7509 1.76008 21.6909 1.09008C20.5609 0.380075 18.7809 0.430075 17.5009 0.330075C13.0809 7.49528e-05 8.63092 0.010075 4.20092 0.010075C2.75092 0.010075 2.75092 2.26007 4.20092 2.26007Z" fill="#313334"/>
<path d="M9.13016 12.5903C9.08016 11.2803 9.08016 9.97032 9.13016 8.66032C9.15016 8.00032 9.19016 7.35032 9.23016 6.69032C9.25016 6.41032 9.35016 6.06032 9.30016 5.79032C9.37016 6.23032 8.10016 6.19032 8.57016 6.42032C8.71016 6.49032 8.87016 6.52032 9.02016 6.57032C10.0202 6.92032 11.0102 7.43032 11.9602 8.00032C12.4602 8.30032 12.9602 8.62032 13.4502 8.94032C13.6802 9.09032 13.9002 9.24032 14.1202 9.39032C14.2302 9.47032 14.3402 9.54032 14.4602 9.62032C14.5302 9.67032 14.6102 9.72032 14.6802 9.77032C14.9102 9.94032 14.8502 9.85032 14.5102 9.48032C14.5102 9.28032 14.5102 9.08032 14.5102 8.88032C14.5402 8.76032 14.6102 8.67032 14.7002 8.61032C14.6302 8.66032 14.5602 8.72032 14.4902 8.77032C14.3502 8.87032 14.2002 8.98032 14.0602 9.08032C13.8102 9.26032 13.5502 9.43032 13.2902 9.59032C12.7102 9.95032 12.1102 10.2903 11.5002 10.5903C10.3602 11.1503 9.15016 11.5803 7.86016 11.9203C7.27016 12.0703 6.92016 12.7303 7.07016 13.3003C7.23016 13.9003 7.86016 14.2403 8.45016 14.0903C10.1402 13.6503 11.7902 13.0103 13.3302 12.1703C14.0702 11.7703 14.7802 11.3203 15.4602 10.8303C15.8402 10.5603 16.2802 10.3003 16.5202 9.89032C16.9002 9.24032 16.6802 8.50032 16.1202 8.05032C15.4402 7.51032 14.6802 7.05032 13.9502 6.58032C13.2102 6.11032 12.4502 5.66032 11.6702 5.27032C10.8702 4.87032 10.0202 4.48032 9.16016 4.25032C8.62016 4.10032 7.99016 4.12032 7.55016 4.56032C7.12016 4.98032 7.08016 5.52032 7.03016 6.09032C6.85016 8.25032 6.81016 10.4203 6.88016 12.5903C6.90016 13.2003 7.38016 13.7103 8.00016 13.7103C8.60016 13.7203 9.15016 13.2003 9.13016 12.5903Z" fill="#313334"/>
</svg>
